<!-- Created by choc (chocmake.github.io) -->

<!DOCTYPE svg PUBLIC "-//W3C//DTD SVG 1.1//EN" "http://www.w3.org/Graphics/SVG/1.1/DTD/svg11.dtd" [
    <!ENTITY ns_svg "http://www.w3.org/2000/svg">
    <!ENTITY ns_xlink "http://www.w3.org/1999/xlink">
]>

<svg version="1.1" width="100%" height="100%" xmlns="&ns_svg;" xmlns:xlink="&ns_xlink;">

    <defs>
        <rect id="mask-exclusion" class="exclusion fill" width="100%" height="100%"/>

        <!-- Horizontal rule - wavy -->
            <g id="hr-wavy-shape" class="stroke thin" transform="matrix(1,0,0,1,0.5,-1.99529)">
                <g transform="matrix(1.35624,0,0,1,-3.56242,-4)">
                    <path d="M2.627,6.495C6.481,6.495 6.145,11.519 10,11.519C13.855,11.519 13.519,6.495 17.373,6.495"/>
                </g>
            </g>

            <mask id="hr-wavy-mask">
                <g transform="translate(-21 0)">
                    <use class="fill" xlink:href="#hr-wavy-shape"/>
                    <use class="fill" x="21px" xlink:href="#hr-wavy-shape"/>
                    <use class="fill" x="42px" xlink:href="#hr-wavy-shape"/>
                    <rect class="exclusion fill crisp" x="0" y="0" width="21px" height="7px"/>
                    <rect class="exclusion fill crisp" x="42px" y="0" width="40px" height="7px"/>
                </g>
            </mask>

            <!-- Height actually 7px but 10px prevents edge from repeating flush at 7px -->
            <pattern id="hr-wavy-pattern" x="0" y="0" width="21px" height="10px" patternUnits="userSpaceOnUse">
                <rect class="fill foreground" mask="url(#hr-wavy-mask)" width="100%" height="100%"/>
            </pattern>
        <!-- End of Horizontal rule - wavy -->


        <!-- Downloads icon -->
            <rect id="downloads-icon-text-area-mask" class="fill" x="36px" width="100%" height="100%"/>

            <mask id="downloads-icon-whole-mask">
                <use xlink:href="#mask-exclusion"/>
                <rect class="fill" width="100%" height="100%" mask="url(#downloads-icon-page-mask)"/>
                <use xlink:href="#downloads-icon-text-area-mask"/>
            </mask>

            <mask id="downloads-icon-page-mask">
                <rect class="fill" width="30px" height="37px" rx="3" ry="3"/>
                <rect class="exclusion fill" x="15.5px" width="15px" height="50px" transform="rotate(-47)"/>
            </mask>

            <mask id="downloads-icon-shadow-mask">
                <!-- <g mask="url(#downloads-icon-page-mask)"> -->
                    <!-- <rect x="10.5px" width="15px" height="50px" class="fill" transform="rotate(-45)"/> -->
                    <path class="fill" d="M0,0h25.75v25.75c0,0-1.478-8.049-9.768-15.945C6.921,1.173,0,0,0,0z" transform="translate(6 -2)"/>
                    <rect class="exclusion fill" x="22px" y="-13px" width="20px" height="20px" rx="3" ry="3"/>
                <!-- </g> -->
            </mask>

            <mask id="downloads-icon-glyph-mask">
                <!-- <g mask="url(#downloads-icon-page-mask)"> -->
                    <line class="stroke" x1="15px" x2="15px" y1="10px" y2="22px"/>
                    <path class="stroke" d="M 10,18 L 15,23 L 20,18"/>
                    <line class="stroke" x1="10px" x2="20px" y1="27px" y2="27px"/>
                <!-- </g> -->
                <use xlink:href="#downloads-icon-text-area-mask"/>
            </mask>
        <!-- End of Downloads icon -->

        <!-- Footer wavy background -->
        <path id="footer-wavy-shape" transform="translate(-137 0)" d="M1320,26C1320,26 1129.21,96 1028.84,96C929.174,96 827.84,26 729.84,26C622.829,26 536.683,96 430.772,96C336.946,96 137,26 137,26L137,244L1320,244L1320,26Z"/>

        <mask id="footer-wavy-mask-p1">
            <g transform="translate(-295 0)">
                <use class="fill" xlink:href="#footer-wavy-shape"/>
                <rect class="exclusion fill crisp" x="5px" y="0" width="290px" height="250px"/>
                <rect class="exclusion fill crisp" x="890px" y="0" width="300px" height="250px"/>
            </g>
        </mask>

        <!-- Offsetting to peaks on left/right, valley in center -->
        <mask id="footer-wavy-mask-p2">
            <g transform="translate(-295 0)">
                <rect class="fill" mask="url(#footer-wavy-mask-p1)" width="500%" height="100%"/>
                <rect class="fill" mask="url(#footer-wavy-mask-p1)" width="500%" height="100%" transform="translate(595 0)"/>
                <rect class="exclusion fill crisp" x="890px" y="0" width="300px" height="250px"/>
            </g>
        </mask>

        <!-- X offset centers the pattern when the viewport width changes -->
        <pattern id="footer-wavy-pattern" x="50%" y="0" width="595px" height="190px" patternUnits="userSpaceOnUse">
            <rect class="fill foreground" mask="url(#footer-wavy-mask-p2)" width="500%" height="100%"/>
        </pattern>
        <!-- End of Footer wavy background -->

    </defs>

    <style><![CDATA[

        * {
        }

        svg {
            overflow: visible;
        }

        .crisp {
            shape-rendering: crispEdges;
        }

        .stroke {
            fill: none;
            stroke: #fff;
            stroke-width: 2px;
            stroke-linecap: round;
            stroke-linejoin: round;
            stroke-miterlimit: 2;
            vector-effect: non-scaling-stroke;
        }

        .stroke.thin {
            stroke-width: 1px;
        }

        .exclusion.fill {
            fill: #000;
        }

        .fill {
            fill: #fff;
            stroke: none;
        }

        .background.fill {
            fill: blue;
        }

        .foreground.fill {
            fill: red;
        }

        .output {
            visibility: hidden;
        }

        .output:target {
            visibility: visible;
        }

        ]]></style>

    <!-- Downloads icon -->
    <rect id="downloads-icon-whole" class="output background fill" width="100%" height="100%" mask="url(#downloads-icon-whole-mask)"/>
    <rect id="downloads-icon-shadow" class="output foreground fill" width="100%" height="100%" mask="url(#downloads-icon-shadow-mask)"/>
    <rect id="downloads-icon-glyph" class="output foreground fill" width="100%" height="100%" mask="url(#downloads-icon-glyph-mask)"/>

    <!-- Horizontal rule - wavy -->
    <rect id="hr-wavy" class="output foreground" fill="url(#hr-wavy-pattern)" width="100%" height="7px" transform="translate(0 1)"/>

    <!-- Footer wavy background -->
    <rect id="footer-wavy" class="output background" fill="url(#footer-wavy-pattern)" width="500%" height="190px"/>

</svg>