<!-- Created by choc (chocmake.github.io) -->

<!DOCTYPE svg PUBLIC "-//W3C//DTD SVG 1.1//EN" "http://www.w3.org/Graphics/SVG/1.1/DTD/svg11.dtd" [
    <!ENTITY ns_svg "http://www.w3.org/2000/svg">
    <!ENTITY ns_xlink "http://www.w3.org/1999/xlink">
]>

<svg version="1.1" height="300" xmlns="&ns_svg;" xmlns:xlink="&ns_xlink;">

    <defs>

        <!-- Frame: 292x284, Sprite: <width * 28>x<height> (single row) -->
        <image id="sprite-alpha" x="0" y="0" width="8176px" height="284px" xlink:href="header-sprite-alpha.png"/>
        <image id="sprite" mask="url(#mask-sprite-alpha)" x="0" y="0" width="8176px" height="284px" xlink:href="header-sprite-color.jpg"/>

        <g id="back-foot">
            <g id="back-foot-frame-01">
                <g id="back-foot-frame-01-bg" class="init-offset-back-foot">
                    <path d="M295.333,350C297.66,340.64 307.299,332.329 323.004,334.611C331.409,335.832 335,339.154 339.833,344.667"/>
                </g>
                <g id="back-foot-frame-01-fg" class="init-offset-back-foot">
                    <path d="M269.833,359.667C274.367,345.864 286.754,347 295.333,350"/>
                    <path d="M342,356.667C361.726,344.804 368.108,356.529 362.333,362"/>
                </g>
                <path id="back-foot-frame-01-fill" class="init-offset-back-foot foreground-fill" d="M289.9,349.438C276.18,347.459 272.05,354.583 268.8,360.667C265.066,367.655 267.133,411.917 275.467,416.583C283.8,421.25 364.416,424.736 367.467,414.083C368.811,409.391 381.255,343.822 351.707,353.317C312.224,366.003 309.304,352.237 289.9,349.438Z"/>
            </g>
            <g id="back-foot-frame-02">
                <g id="back-foot-frame-02-bg" class="init-offset-back-foot">
                    <path d="M245.729,361.815C244.008,355.378 244.431,347.56 251.042,341.146C258.666,333.748 268.66,334.56 274.19,338.899"/>
                    <path d="M284.348,332.881C287.114,327.578 292.962,319.202 303.25,315.5C312.498,312.172 325.834,313.73 330.491,315.964"/>
                    <path d="M400.125,351.875C406.004,347.496 412.75,350.158 411.125,355.5"/>
                </g>
                <g id="back-foot-frame-02-fg" class="init-offset-back-foot">
                    <path d="M266.208,360.155C264.132,349.965 272.693,343.339 279.836,341.45C287.679,339.376 293.823,342.441 296.071,344.696"/>
                    <path d="M341.286,352.131C348.518,346.24 360.538,342.339 367.547,347.023C371.624,349.749 373.333,353.292 371.75,359.964"/>
                    <path d="M411.5,356.75C418.197,350.215 429.854,347.981 437.583,348.917C448.463,350.234 448.389,357.5 442.417,361.417"/>
                </g>
                <path id="back-foot-frame-02-fill" class="init-offset-back-foot foreground-fill" d="M280.177,421.023C266.818,420.44 249.25,376.5 265.5,353.917C270.128,347.485 271.518,339.83 289.1,340.938C293.101,341.19 302.751,347.786 313.116,351.832C322.751,355.593 330.599,359.587 341.637,351.948C352.938,344.127 360.44,342.431 368.667,347C374.814,350.414 388.205,363.314 406.453,355.693C440.012,341.677 447.122,352.992 447.809,356.137C449.481,363.799 434.136,415.853 425.779,417.563C383.41,426.231 286.237,421.288 280.177,421.023Z"/>
            </g>
            <g id="back-foot-frame-03">
                <g id="back-foot-frame-03-bg" class="init-offset-back-foot">
                    <path d="M231,359.5C212.669,344.46 237.899,309.149 268,327C269.02,317.396 275.112,309.851 280.015,305.012C294.287,290.927 313.556,295.529 318.5,297.75"/>
                    <path d="M270.25,307.25C257.09,303.966 249.41,312.701 245,322.5"/>
                    <path d="M471.25,362C471.843,357.378 467,355.911 463.75,356"/>
                    <path d="M410,336.5C417.151,332.362 430.515,332.722 427.75,345"/>
                </g>
                <g id="back-foot-frame-03-fg" class="init-offset-back-foot">
                    <path d="M415,353.25C428.984,344.333 435.553,342.415 449.236,341.852C464.061,341.242 470.284,357.377 456.75,360"/>
                    <path d="M339.75,349.5C351,340.5 355.203,339.221 365,339.5C378.924,339.896 382.243,349.271 378.25,359"/>
                    <path d="M297.25,342C287.781,333.124 271.518,335.856 266.25,342.75C260.389,350.421 261.637,359.613 265.5,362.5"/>
                </g>
                <path id="back-foot-frame-03-fill" class="init-offset-back-foot foreground-fill" d="M425,420.25C398.699,422.263 298.988,420.713 278.417,420.583C268.866,420.523 255.779,384.022 262.75,352.917C264.824,343.662 267.518,335.58 285.1,336.688C290.921,337.054 305.709,344.74 317.133,348.926C323.473,351.249 330.183,351.875 341.724,345.251C354.741,337.78 366.723,338.69 370.417,340C379.525,343.23 383.583,353.764 397.487,353.049C403.107,352.76 414.708,351.092 421.144,347.754C432.533,341.847 443.435,341.52 453.487,342.299C465.59,343.237 463.935,358.198 461,369.75C456.418,387.785 433.002,419.638 425,420.25Z"/>
            </g>
            <g id="back-foot-frame-04">
                <g id="back-foot-frame-04-bg" class="init-offset-back-foot">
                    <path d="M415.714,329C421.953,325.25 428.762,324.382 433.125,326.623C438.44,329.352 440.55,333.475 437.429,340.286"/>
                    <path d="M476.143,353.429C480.391,352.835 482.561,354.689 482,358.857"/>
                    <path d="M219.714,355C209.252,348.571 208.074,328.248 214.857,318.286C226.921,300.566 249.231,303.009 259.143,308.571C263.429,291.389 275.947,280.133 288.143,276.571C298.882,273.435 313.714,275.626 318.286,280.857"/>
                </g>
                <g id="back-foot-frame-04-fg" class="init-offset-back-foot">
                    <path d="M296,327.857C272.677,309.239 242.449,337.612 258,359"/>
                    <path d="M345.714,341.143C355.145,334.785 368.975,331.178 377.571,337.286C383,341.143 384.23,347.714 382.571,352.857"/>
                    <path d="M428.429,345C441.15,338.391 453.327,336.413 462.286,338.571C473.934,341.377 473.286,354.409 460.571,358.286"/>
                </g>
                <path id="back-foot-frame-04-fill" class="init-offset-back-foot foreground-fill" d="M359.046,420.333C344.028,421.978 283.135,422.781 276.608,420.273C265.443,415.983 252.597,350.194 254.536,340.521C255.852,333.958 265.4,319.128 283.555,322.95C301.188,326.66 302.046,334.522 315.408,338.477C327.759,342.133 334.685,343.406 343.574,339.59C350.175,336.755 362.59,334.101 369.883,335.676C389.056,339.818 384.958,352.473 402.493,349.444C428.726,344.913 443.453,339.952 455.695,343.511C473.366,348.648 466.083,362.598 463.906,368.054C459.45,379.223 449.418,402.585 439.111,412.924C429.304,422.76 366.663,422.859 359.046,420.333Z"/>
            </g>
            <g id="back-foot-frame-05">
                <g id="back-foot-frame-05-bg" class="init-offset-back-foot">
                    <path d="M487.724,348.94C493.796,346.445 497.639,351.314 495.753,354.968C495.054,356.322 493.679,357.774 491.174,357.905"/>
                    <path d="M418.286,321.429C430.422,313.032 453.571,314.923 449.571,334.857"/>
                    <path d="M257.167,291.833C250.056,287.778 244.346,284.982 230.333,286C207.982,287.624 191.283,308.741 194.833,329.333C196.5,339 201.844,344.054 207.5,349"/>
                    <path d="M243.5,286.167C247.739,278.988 255.53,275.652 262.377,277.288"/>
                    <path d="M261.167,279.833C267.697,261.877 281.911,253.565 298.5,253.5C313.269,253.442 320.909,259.47 325.667,263.5"/>
                </g>
                <g id="back-foot-frame-05-fg" class="init-offset-back-foot">
                    <path d="M441,337.5C470.485,328.215 480.252,340.193 476.193,349.378C474.73,352.688 470.459,356.152 467,357.5"/>
                    <path d="M348.5,335C362.128,323.246 374.863,326.241 380,328.75C387.192,332.263 390.036,342.218 386.014,347.627"/>
                    <path d="M215.75,361.25C216.048,354.558 219.5,351.42 224.5,348.5"/>
                    <path d="M247.25,353.75C235.307,329.863 256.972,308.477 277.499,308.403C284.553,308.378 291.899,311.649 296,316.75C296.984,310.333 302.871,303.855 309.118,303.989"/>
                    <path d="M336.76,361.534L332.989,356.972"/>
                    <path d="M396.838,359.547L396.911,359.435"/>
                </g>
                <path id="back-foot-frame-05-fill" class="init-offset-back-foot foreground-fill" d="M296.952,315.651C307.775,323.264 317.8,334.848 329.35,334.44C345.075,333.885 361.932,322.157 376.633,327.676C389.099,332.356 390.224,342.897 408.7,343.368C430.52,343.923 461.423,331.668 469.776,345.126C479.913,361.454 440.137,415.124 435.906,418.804C431.429,422.699 296.566,420.563 274.608,420.773C262.648,420.887 241.597,346.194 243.536,336.521C244.852,329.958 255.007,309.891 273.555,309.45C281.821,309.253 291.458,311.786 296.952,315.651Z"/>
            </g>
            <g id="back-foot-frame-06">
                <g id="back-foot-frame-06-bg" class="init-offset-back-foot">
                    <path d="M421.8,317.8C439.644,309.117 447.09,316.749 450.8,323.2"/>
                    <path d="M462.6,320.2C466.523,321.6 468.6,323.607 471.4,326.8"/>
                    <path d="M195.8,339.6C176.476,322.536 183.853,296.9 194.669,286.336C209.884,271.476 237.992,271.127 250.8,282.4"/>
                    <path d="M335.6,257C331.244,245.887 319.594,237.127 305.617,235.717C285.943,233.733 271.819,242.902 262.4,261.4C252.692,258.2 239.4,259.838 233.2,273"/>
                    <path d="M493.167,350.333C498.667,342.833 504.333,347.5 504.167,351.833C504.013,355.834 498.333,358.554 495,354.667"/>
                </g>
                <g id="back-foot-frame-06-fg" class="init-offset-back-foot">
                    <path d="M241.833,339.5C239.066,318.841 251.495,307.971 260.771,303.84C273.572,298.139 286.829,303.399 290.167,307.143C295.048,298.29 302.721,294.762 310.5,295.5"/>
                    <path d="M354.429,326.857C368.852,318.135 379.757,321.39 384.612,326.821C388.416,331.078 388.787,336.801 388,342.286"/>
                    <path d="M448.571,334.714C463.062,331.412 471.661,332.704 476.857,335.857C484.739,340.639 484.69,348.857 476.143,354.429"/>
                    <path d="M328.76,352.367L326.322,349.638"/>
                    <path d="M403.26,353.367L405.322,351.138"/>
                    <path d="M194.95,359.85C195.248,353.158 198.3,349.42 201.5,346.1"/>
                </g>
                <path id="back-foot-frame-06-fill" class="init-offset-back-foot foreground-fill" d="M320.758,326.145C337.186,334.85 353.724,314.404 380.681,325.587C394.808,331.448 398.358,342.127 419.198,339.358C450.185,335.241 479.342,332.865 476.517,348.158C471.202,376.932 439.826,415.618 436.356,418.402C433.26,420.886 282.856,423.095 273.775,419.606C262.61,415.316 239.731,339.219 241.536,329.521C244.186,315.291 253.059,303.913 271.555,302.45C293.096,300.745 296.919,313.512 320.758,326.145Z"/>
            </g>
            <g id="back-foot-frame-07">
                <g id="back-foot-frame-07-bg" class="init-offset-back-foot">
                    <path d="M498,351.464C499.203,354.872 503.643,355.571 505.786,354C507.929,352.429 509,350.5 508,347.786C507.11,345.369 503.827,343.845 500.964,345.036C498.132,346.214 497.143,349.036 498,351.464Z"/>
                    <path d="M465.833,314.75C473.009,314.616 482.658,320.134 476,331.5"/>
                    <path d="M431.167,314.667C438.222,310.648 447.665,311.544 449.811,315.641"/>
                    <path d="M244.521,264.708C232.972,258.139 222.323,258.04 213.491,258.715C182.784,261.059 168.333,284.945 167.994,303.666C167.747,317.242 170.343,321.182 174.667,326.833"/>
                    <path d="M226.5,258.667C234.536,244.511 248.131,237.656 259.5,241.167"/>
                    <path d="M344.667,248.333C342.567,239.936 337.37,232.585 329.445,227.171C316.251,218.157 297.018,215.299 280.057,223.782C272.792,227.415 265.111,233.463 259.667,241.167"/>
                </g>
                <g id="back-foot-frame-07-fg" class="init-offset-back-foot">
                    <path d="M237.667,323.833C239.402,301.108 259.542,294.283 270.083,293.917C278.139,293.636 284.417,295.75 288.333,299.833C295.833,286.372 307.537,284.667 315.417,286.833"/>
                    <path d="M363.6,319.4C378.033,310.9 393.1,324.2 391,335.4"/>
                    <path d="M456.167,331.833C464.988,330.551 472.32,330.566 479.36,332.513C488.941,335.163 491.551,345.35 484.833,352"/>
                    <path d="M410.315,346.61L412.815,343.943"/>
                    <path d="M322.356,344.997L319.261,341.225"/>
                    <path d="M335.544,359.184L335.448,359.162"/>
                    <path d="M177.75,336.671C175.364,341.124 169.762,346.443 172.764,358.071"/>
                    <path d="M223,358C223.048,360.095 223.194,361.209 223.571,363.143"/>
                </g>
                <path id="back-foot-frame-07-fill" class="init-offset-back-foot foreground-fill" d="M264.145,295.116C283.485,291.346 298.525,308 319.516,321.777C333.955,331.253 364.339,310.981 381.958,321.266C395.053,328.91 406.433,337.097 421.514,335.779C448.638,333.408 465.231,330.855 477.653,336.813C487.637,341.601 481.425,351.338 479.522,355.152C474.008,366.207 447.443,421.35 439.819,420.145C436.733,419.656 280.219,421.735 272.896,420.818C261.713,419.419 232.777,358.821 239.205,320.658C241.075,309.555 246.585,298.539 264.145,295.116Z"/>
            </g>
            <g id="back-foot-frame-08">
                <g id="back-foot-frame-08-bg" class="init-offset-back-foot">
                    <path d="M501.94,349.419C502.783,351.808 505.613,352.934 507.255,352.054C509.043,351.095 510.068,349.176 509.379,347.269C508.612,345.147 506.31,344.078 504.304,344.913C502.319,345.739 501.339,347.717 501.94,349.419Z"/>
                    <path d="M471.548,312.607C475.176,313.664 477.967,316.658 478.571,319.643"/>
                    <path d="M438.31,312.067C446.651,308.048 451.512,309.744 453.525,312.841"/>
                    <path d="M239.121,255.908C227.572,249.339 216.51,249.889 207.691,250.715C178.384,253.459 163.533,277.545 163.393,295.066C163.285,308.644 166.543,315.182 170.067,319.633"/>
                    <path d="M228.3,238.667C236.335,224.511 257.531,221.456 267.5,227.567"/>
                    <path d="M348.865,239.734C348.217,231.154 345.236,224.583 338.66,218.046C329.041,208.485 307.876,205.409 292.567,211.56C286.994,213.799 283.618,215.761 278.007,219.628"/>
                </g>
                <g id="back-foot-frame-08-fg" class="init-offset-back-foot">
                    <path d="M233.524,307.119C239.973,291.536 255.134,285.383 265.655,284.631C273.568,284.065 280.017,285.321 285.905,289.233C294.148,279.486 306.251,278.524 313.56,280.405"/>
                    <path d="M373,314.989C384.191,313.612 392.761,323.058 392.571,330.971"/>
                    <path d="M459.767,330.29C468.588,327.694 478.015,328.188 482.16,329.37C490.134,331.644 491.151,337.55 489.633,344.6"/>
                    <path d="M417.39,339.21L418.89,337.343"/>
                    <path d="M314.356,336.854L311.404,333.653"/>
                    <path d="M330.606,355.184L330.511,355.162"/>
                    <path d="M164.607,333.1C160.078,337.267 156.619,342.443 157.621,354.071"/>
                    <path d="M219.156,357.949L219.052,358.196"/>
                </g>
                <path id="back-foot-frame-08-fill" class="init-offset-back-foot foreground-fill" d="M259.478,286.45C285.5,281.689 300.108,306.909 320.48,316.033C340.038,324.794 368.203,305.458 387.937,320.906C392.366,324.373 403.679,332.03 419.2,333.085C445.976,334.904 475.074,324.671 486.962,337.896C494.075,345.809 484.964,359.336 479.249,369.481C464.728,395.257 448.068,418.342 444.523,420.318C439.667,423.025 270.623,420.706 261.73,421.068C250.469,421.526 227.291,343.699 235.872,307.992C237.942,299.377 241.88,289.669 259.478,286.45Z"/>
            </g>
            <g id="back-foot-frame-09">
                <g id="back-foot-frame-09-bg" class="init-offset-back-foot">
                    <path d="M282,209.333C314.739,187.485 348.344,203.043 354.333,228.917"/>
                    <path d="M164.067,309.8C159.372,306.079 156.556,296.819 157.726,284.336C159.469,265.73 173.634,251.381 187.4,244.533C201.717,237.412 225.248,239.556 235,247.667"/>
                    <path d="M224.25,221C242.575,201.733 263.009,206.417 268.25,210.833"/>
                    <path d="M268.839,225.71L269.001,225.56"/>
                    <path d="M508.187,343.25C506.959,343.757 506.355,345.547 507.521,347.271C508.068,348.081 509.623,348.444 510.479,348.083C511.667,347.583 511.937,346.042 511.75,344.979C511.562,343.917 509.794,342.586 508.187,343.25Z"/>
                    <path d="M443.875,309.167C449.386,306.962 456.128,306.806 459.022,310.311"/>
                    <path d="M479.75,312.375C481.083,313.5 482.792,314.75 483.625,316.5"/>
                </g>
                <g id="back-foot-frame-09-fg" class="init-offset-back-foot">
                    <path d="M232.2,292.2C245.07,274.035 261.15,272.317 272.637,274.627C277.804,275.667 279.815,277.056 282.6,279.4C287.6,273.532 293.842,271.542 298.199,271.196"/>
                    <path d="M315.438,271.762L315.5,271.762"/>
                    <path d="M381.8,314.2C389.679,312.99 394.165,323.392 393.865,327.332"/>
                    <path d="M424.63,330.844L424.792,330.644"/>
                    <path d="M463.857,329C473.883,323.681 493.857,323.485 494.857,341"/>
                    <path d="M308.216,330.026L303.816,325.226"/>
                    <path d="M326.591,352.088L326.441,351.976"/>
                    <path d="M216.112,354.818L216.171,354.689"/>
                    <path d="M147.524,328.048C142.915,333.718 141.667,339.81 143,346.143"/>
                </g>
                <path id="back-foot-frame-09-fill" class="init-offset-back-foot foreground-fill" d="M256.145,276.116C277.616,272.604 281.427,280.997 294.55,290.739C308.663,301.216 314.685,315.345 334.158,314.424C355.401,313.419 366.804,311.364 386.338,316.386C401.463,320.274 398.589,328.668 421.538,329.183C459.898,330.045 484.295,329.094 487.73,331.95C505.227,346.497 457.958,417.339 448.023,420.152C443.939,421.308 269.424,418.591 260.98,420.818C250.082,423.693 225.125,327.533 234.205,296.325C236.68,287.818 238.489,279.005 256.145,276.116Z"/>
            </g>
            <g id="back-foot-frame-10">
                <g id="back-foot-frame-10-bg" class="init-offset-back-foot">
                    <path d="M158.267,303.6C155.172,296.879 152.666,287.429 153.726,274.936C155.269,256.73 165.839,245.238 178.6,237.733C190.853,230.527 212.548,228.156 221.25,235.917"/>
                    <path d="M223.65,209.8C241.375,190.133 260.209,198.417 265.45,202.833"/>
                    <path d="M287.25,195.833C321.739,181.985 346.344,199.293 352.333,215.917"/>
                    <path d="M265.776,221.835L265.939,221.685"/>
                    <path d="M510.134,344.362C509.495,344.613 509.056,345.318 509.663,346.169C509.947,346.569 510.631,346.689 511.077,346.511C511.695,346.264 511.836,345.681 511.738,345.157C511.641,344.632 510.97,344.035 510.134,344.362Z"/>
                    <path d="M449.018,306.738C452.815,305.962 456.708,306.666 459.736,308.454"/>
                    <path d="M481.955,312.214C482.94,312.803 483.238,313.304 483.911,314.214"/>
                </g>
                <g id="back-foot-frame-10-fg" class="init-offset-back-foot">
                    <path d="M231.657,284.943C243.813,265.921 261.321,264.345 274.808,268.227M282.412,272.125C286.787,267.819 291.191,266.767 294.674,266.671"/>
                    <path d="M315.687,269.637L315.75,269.637"/>
                    <path d="M386.55,314.45C390.929,316.407 394.165,319.475 394.032,324.165"/>
                    <path d="M425.88,328.844L426.042,328.644"/>
                    <path d="M475.429,323.714C486.311,321.538 495,329.913 495.571,337"/>
                    <path d="M303.841,325.088L301.146,321.806"/>
                    <path d="M323.841,348.651L323.691,348.538"/>
                    <path d="M213.736,353.818L213.796,353.689"/>
                    <path d="M140.74,329.397C137.847,333.559 137.422,337.799 137.451,342.211"/>
                </g>
                <path id="back-foot-frame-10-fill" class="init-offset-back-foot foreground-fill" d="M253.145,269.116C237.535,273.404 234.694,281.489 232.205,289.992C226.875,308.199 242.369,421.844 263.146,420.818C276.577,420.155 454.329,424.47 453.89,419.163C453.757,417.545 501.119,351.39 492.434,335.14C488.486,327.751 488.993,326.165 464.843,327.148C452.349,327.656 440.478,328.841 428.221,328.419C402.85,327.545 395.861,317.298 382.78,314.019C361.042,308.571 352.15,310.906 332.639,311.097C312.442,311.295 299.952,287.658 285.741,275.581C276.056,267.352 260.395,267.125 253.145,269.116Z"/>
            </g>
            <g id="back-foot-frame-11">
                <g id="back-foot-frame-11-bg" class="init-offset-back-foot">
                    <path d="M452.708,305.167C454.59,305.083 458.285,305.604 460.292,305.958"/>
                    <path d="M485.578,312.171L485.687,312.069"/>
                    <path d="M212.933,224.533C207.122,221.126 196.104,221.137 187.631,222.952C174.902,225.679 158.098,236 151.034,253.814C147.972,261.534 147.157,283.41 150.2,295"/>
                    <path d="M223,195.75C226.538,192.04 231.479,188.919 235.48,187.324C245.347,183.39 253.813,185.938 260,189.75"/>
                    <path d="M297.583,183.75C326.658,179.588 339.158,190.242 348.667,203.75"/>
                    <path d="M262.238,217.94L262.113,217.833"/>
                </g>
                <g id="back-foot-frame-11-fg" class="init-offset-back-foot">
                    <path d="M230.375,274.312C240.523,259.187 251.532,256.181 264.625,257.667"/>
                    <path d="M279.6,266.4C283.2,262.486 286.143,262.057 290.143,262.2"/>
                    <path d="M316.931,267.528L316.994,267.382"/>
                    <path d="M211.748,351.597L211.873,351.576"/>
                    <path d="M298.936,318.487L299.04,318.549"/>
                    <path d="M391.521,315.083C393.856,316.848 396.057,318.134 395.735,323.214"/>
                    <path d="M488.5,325C492.881,326.524 496.452,331.143 497.667,335.167"/>
                    <path d="M135.667,329.25C134.083,332.749 133.167,336.584 133.417,340.75"/>
                </g>
                <path id="back-foot-frame-11-fill" class="init-offset-back-foot foreground-fill" d="M248.478,259.45C233.011,264.226 230.295,275.964 229.205,281.075C224.174,304.672 254.95,422.967 262.724,419.803C265.895,418.513 454.19,421.564 456.563,419.818C457.641,419.025 512.672,348.379 489.559,330.445C478.791,322.089 465.355,326.019 442.257,326.632C423.361,327.133 411.33,323.563 388.315,315.034C374.895,310.061 362.544,309.483 335.649,309.133C319.891,308.928 294.46,274.464 272.139,261.051C265.157,256.855 252.844,258.102 248.478,259.45Z"/>
            </g>
            <g id="back-foot-frame-12">
                <g id="back-foot-frame-12-bg" class="init-offset-back-foot">
                    <path d="M457.208,304.729C458.777,305.396 459.473,305.854 460.667,306.958"/>
                    <path d="M485.578,312.171L485.687,312.069"/>
                    <path d="M205.533,219.733C197.122,218.726 190.488,218.866 182.031,220.752C168.902,223.679 156.665,234.784 149.634,249.614C146.459,256.31 145.557,261.81 145.4,271.2"/>
                    <path d="M222.88,185.524C234.547,175.79 248.413,178.738 254.6,182.55"/>
                    <path d="M306.383,180.35C325.858,179.188 333.958,185.042 343.467,195.15"/>
                    <path d="M262.238,217.94L262.113,217.833"/>
                    <path d="M145.022,290.867L145.029,292.119"/>
                </g>
                <g id="back-foot-frame-12-fg" class="init-offset-back-foot">
                    <path d="M229.518,268.17C238.523,257.758 248.961,254.181 258.768,254.667"/>
                    <path d="M280.171,262.641C281.432,261.7 282.822,261.405 284.08,261.468"/>
                    <path d="M316.931,267.528L316.994,267.382"/>
                    <path d="M211.748,351.597L211.873,351.576"/>
                    <path d="M297.311,316.799L297.415,316.862"/>
                    <path d="M393.354,315.524C394.606,316.538 395.223,317.301 395.818,319.048"/>
                    <path d="M491.357,325.714C494.167,326.381 495.595,327.286 496.667,329.881"/>
                    <path d="M132.809,330.25C132.083,332.178 131.818,334.155 131.783,336.75"/>
                </g>
                <path id="back-foot-frame-12-fill" class="init-offset-back-foot foreground-fill" d="M249.728,256.45C234.261,261.226 228.795,271.714 227.705,276.825C222.674,300.422 254.95,422.967 262.724,419.803C265.895,418.513 454.19,421.564 456.563,419.818C457.641,419.025 518.422,347.629 495.309,329.695C484.541,321.339 465.355,326.019 442.257,326.632C423.361,327.133 414.33,323.563 391.315,315.034C377.895,310.061 364.294,308.233 337.399,307.883C321.641,307.678 295.71,272.464 273.389,259.051C266.407,254.855 254.094,255.102 249.728,256.45Z"/>
            </g>
            <g id="back-foot-frame-13">
                <g id="back-foot-frame-13-bg" class="init-offset-back-foot">
                    <path d="M461.588,307.234L461.671,307.151"/>
                    <path d="M143.167,255.167C145.405,236.178 161.026,222.014 177.37,216.607C185.182,214.022 193.803,213.824 200,215.333"/>
                    <path d="M223.6,176.133C232.209,169.529 243.793,170.733 248.533,173.533"/>
                    <path d="M315.4,178.6C326.267,178.333 333.133,182.533 338.8,188"/>
                    <path d="M140.938,287.563L140.938,287.5"/>
                </g>
                <g id="back-foot-frame-13-fg" class="init-offset-back-foot">
                    <path d="M295.961,315.087L295.898,315.024"/>
                    <path d="M397.781,317.666L397.823,317.561"/>
                    <path d="M498.646,328.107C498.646,328.107 498.159,327.574 497.593,327.089C496.993,326.575 496.312,326.107 496.312,326.107"/>
                    <path d="M228.333,263C233.863,255.97 243.17,252.333 251,252.333"/>
                    <path d="M130,329.5C129.25,331.875 128.75,333 128.5,335.25"/>
                </g>
            </g>
            <g id="back-foot-frame-14">
                <g id="back-foot-frame-14-bg" class="init-offset-back-foot">
                    <path d="M461.588,307.234L461.671,307.151"/>
                    <path d="M142.833,248.833C144.085,242.904 147.932,236.623 151.502,232.229C166.623,213.613 184.869,211.581 194.333,212.667"/>
                    <path d="M226.433,172.467C234.043,169.112 240.043,169.817 244.867,171.617"/>
                    <path d="M318.4,176.433C325.1,177.5 328.633,179.033 332.3,182.833"/>
                    <path d="M138.937,286.5L138.937,286.437"/>
                </g>
                <g id="back-foot-frame-14-fg" class="init-offset-back-foot">
                    <path d="M295.961,315.087L295.898,315.024"/>
                    <path d="M397.781,317.666L397.823,317.561"/>
                    <path d="M498.5,326.836L497.708,326.003"/>
                    <path d="M229.244,258.562C234.899,252.595 239.652,250.333 245.982,249.396"/>
                    <path d="M128.25,327.875C127.438,329.062 127.062,329.563 126.25,331.125"/>
                </g>
            </g>
            <g id="back-foot-frame-15">
                <g id="back-foot-frame-15-bg" class="init-offset-back-foot">
                    <path d="M146.167,235.167C161.82,212.027 176.347,210.195 189,210.5"/>
                    <path d="M227.5,169.75C232.455,166.356 237.861,167.027 241.548,169.565"/>
                    <path d="M323.119,174.062C325.881,175.776 327.215,176.548 329.262,178.69"/>
                </g>
                <g id="back-foot-frame-15-fg" class="init-offset-back-foot">
                    <path d="M124.07,327.995L124.028,328.037"/>
                    <path d="M229.438,253.396C232.659,250.84 236.278,248.055 240.667,246.333"/>
                </g>
            </g>
            <g id="back-foot-frame-16">
                <g id="back-foot-frame-16-bg" class="init-offset-back-foot">
                    <path d="M151.167,225C161.487,213.36 170.013,208.862 183.833,208.5"/>
                    <path d="M230.134,167.402C233.803,166.865 235.494,167.071 238.825,167.851"/>
                    <path d="M326.021,172.999C326.532,173.338 326.723,173.548 327.146,174.19"/>
                </g>
                <g id="back-foot-frame-16-fg" class="init-offset-back-foot">
                    <path d="M124.07,327.995L124.028,328.037"/>
                    <path d="M230.438,251.11C232.472,249.43 233.912,248.225 236.926,247.003"/>
                </g>
            </g>
            <g id="back-foot-frame-17">
                <g id="back-foot-frame-17-bg" class="init-offset-back-foot">
                    <path d="M157.429,217.571C161.693,211.065 170.146,207.977 174.42,207.676"/>
                    <path d="M234.692,164.615L234.796,164.511"/>
                </g>
                <g id="back-foot-frame-17-fg" class="init-offset-back-foot">
                    <path d="M231.254,248.067L232.565,247.242"/>
                </g>
            </g>
            <g id="back-foot-frame-18">
                <g id="back-foot-frame-18-bg" class="init-offset-back-foot">
                    <path d="M160.116,211.884C162.035,210.364 164.158,209.115 166.732,208.113"/>
                    <path d="M234.129,162.552L234.233,162.448"/>
                </g>
            </g>
            <g id="back-foot-frame-19">
                <g id="back-foot-frame-19-bg" class="init-offset-back-foot">
                    <path d="M161.765,206.645L161.703,206.603"/>
                </g>
            </g>
        </g>

        <g id="front-foot">
            <g id="front-foot-frame-01">
                <g id="front-foot-frame-01-bg" class="init-offset-front-foot">
                    <path d="M302.314,364.886C299.903,358.21 304.036,349.304 311.08,346.639C315.151,345.099 320.386,345.834 325.4,349.8"/>
                </g>
                <g id="front-foot-frame-01-fg" class="init-offset-front-foot">
                    <path d="M319.286,365.143C328.364,350.13 345.348,354.049 350.714,362"/>
                    <path d="M348.571,363.429C353.428,359.172 363.024,356.749 369.858,356.736C379.22,356.718 379.906,362.131 378.143,364.857"/>
                </g>
                <path id="front-foot-frame-01-fill" class="init-offset-front-foot foreground-fill" d="M316.779,388.207C293.467,388.207 289.411,357.793 308.136,348.786C322.094,342.071 334.922,350.28 343.97,356.502C351.598,361.747 358.132,358.316 366.815,357.061C376.565,355.651 401.066,364.214 374.179,388.179C371.45,388.179 362.964,388.321 333.179,388.321C324.083,388.321 325.302,388.207 316.779,388.207Z"/>
            </g>
            <g id="front-foot-frame-02">
                <g id="front-foot-frame-02-bg" class="init-offset-front-foot">
                    <path d="M278.438,353.313C277.375,342.919 283.594,338.216 290.756,336.28C298.228,334.261 304.375,337.864 306.438,341.063"/>
                    <path d="M432.393,355.92C435.756,354.077 438.101,353.973 440.92,355.045"/>
                </g>
                <g id="front-foot-frame-02-fg" class="init-offset-front-foot">
                    <path d="M288.172,360.857C287.314,353.544 294.895,346.497 307.078,345.005C316.921,343.799 324.371,345.904 329.229,350.229"/>
                    <path d="M338.857,356.857C345.931,353.32 352.335,351.885 359.251,353.368C365.707,354.753 367.019,358.744 366.286,363"/>
                    <path d="M404.857,360.714C409.057,358.521 414.279,357.85 418.429,361.286"/>
                    <path d="M447.429,361C453.476,359.952 455.096,360.476 458.572,361.571"/>
                </g>
                <path id="front-foot-frame-02-fill" class="init-offset-front-foot foreground-fill" d="M298.029,387.157C274.553,387.157 277.735,364.717 279.714,360.2C284.604,349.04 296.116,343.819 305.957,342.714C314.794,341.722 328.059,346.608 333.777,351.081C338.738,354.962 341.948,355.053 348.681,353.531C352.446,352.679 358.346,352.688 362.665,353.91C389.202,361.42 382.816,387.729 370.029,387.729C356.7,387.729 344.214,387.671 325.029,387.671C315.933,387.671 306.552,387.157 298.029,387.157Z"/>
            </g>
            <g id="front-foot-frame-03">
                <g id="front-foot-frame-03-bg" class="init-offset-front-foot">
                    <path d="M273.286,337.429C279.852,330.239 286.097,326.668 295.143,327.143C302.617,327.535 308.734,334.565 312.138,339.915"/>
                    <path d="M431.286,347.714C436.516,344.497 439.562,343.779 442.538,343.286C450.254,342.006 455.52,343.898 460.143,351.286"/>
                </g>
                <g id="front-foot-frame-03-fg" class="init-offset-front-foot">
                    <path d="M399.4,359.486C405.31,353.53 409.46,352.641 413.86,352.717C420.784,352.837 424.813,357.293 423.114,361.086"/>
                    <path d="M445.429,358.857C448.749,354.234 455.65,351.557 463.561,351.78C468.635,351.922 477.893,355.5 468.286,361.857"/>
                    <path d="M373.429,359.857C377.527,354.569 369.197,348.342 359.863,348.071C353.849,347.897 347.514,350.459 341.286,354.571C337.156,348.215 330.989,341.959 317.563,340.049C305.228,338.295 294.502,342.571 285.857,349.857C280.857,341.714 272.317,342.322 268.429,345.714C262.633,350.771 263.844,358.705 268.714,361.571"/>
                </g>
                <path id="front-foot-frame-03-fill" class="init-offset-front-foot foreground-fill" d="M316.506,339.955C300.465,338.639 261.701,350.118 272.283,376.083C275.399,383.728 291.281,387.75 303.5,387.75C332.682,387.75 391.141,388.25 423.75,388.25C431.055,388.25 457.201,385.175 467.627,376.993C483.91,364.213 475.397,346.559 452.212,352.714C445.635,354.46 440.716,355.123 432.25,356.75C426.567,357.842 423.435,349.388 403.75,353.95C386.123,358.036 380.536,356.388 367.25,349.25C362.822,346.871 358.222,346.709 349.485,349.212C345.222,350.433 339.007,350.545 335.829,347.854C331.048,343.806 325.004,340.653 316.506,339.955Z"/>
            </g>
            <g id="front-foot-frame-04">
                <g id="front-foot-frame-04-bg" class="init-offset-front-foot">
                    <path d="M221.086,362.086C219.943,356.208 221.808,349.6 229.514,347.743C226.086,338.869 227.553,326.365 237.545,319.52C243.544,315.411 251.692,315.19 257.914,319.286"/>
                    <path d="M254.286,310.143C254.286,297.298 270.332,291.326 280.429,292.714C289.878,294.014 295.484,299.93 299.571,304.714C307.474,300.954 317.714,301.069 323.429,306.857"/>
                    <path d="M440,340.833C450.159,335.833 467.167,337.525 467,345.667"/>
                </g>
                <g id="front-foot-frame-04-fg" class="init-offset-front-foot">
                    <path d="M246.4,359.8C241.898,351.52 241.471,339.218 254.69,333.782C265.061,329.518 279.2,331.596 284.4,338.2"/>
                    <path d="M333.4,340.8C332.722,332.114 317.142,331.459 308.6,335.6"/>
                    <path d="M310,330.8C303.6,322.2 285.925,322.075 276.6,331.2"/>
                    <path d="M343.6,346.8C354.114,339.243 361.334,336.801 369.8,337.4C380.376,338.148 384.667,345.867 381.4,358.6"/>
                    <path d="M402.8,354.6C413.604,344.795 422.713,345.793 426.225,349.233C428.466,351.428 427.665,355.021 426.4,357.4"/>
                    <path d="M445.4,358.4C453.648,349.53 460.666,348.438 467.527,349.253C473.918,350.012 476.521,355.481 474.8,358.8C477.653,358.2 479.6,358.049 482.4,359.4"/>
                </g>
                <path id="front-foot-frame-04-fill" class="init-offset-front-foot foreground-fill" d="M269.233,331.259C254.54,327.128 237.48,343.764 245.9,361.65C257.669,386.65 295.281,389 307.5,389C336.682,389 395.141,389.5 427.75,389.5C435.055,389.5 466.585,390.142 480.76,369.459C481.948,367.726 490.403,358.903 474.428,358.363C477.169,350.016 469.548,350.967 451.962,352.214C440.631,353.018 434.317,338.591 400.7,351.25C391.392,354.755 380.995,333.225 362.1,337.95C346.41,341.874 343.995,341.27 339.367,340.067C332.959,338.4 318.769,325.435 294.766,324.127C279.778,323.31 277.612,333.615 269.233,331.259Z"/>
            </g>
            <g id="front-foot-frame-05">
                <g id="front-foot-frame-05-bg" class="init-offset-front-foot">
                    <path d="M318,268C305.746,265.872 293.268,268.412 284.25,271.5C280.184,268 270.778,261.992 262.75,260.5C241.675,256.584 227.373,269.401 222.721,280.344C218.647,289.931 219.861,298.221 224,306C211.22,305 192.95,314.822 194.75,333.5C195.434,340.596 198.583,343.417 200.75,347C194.733,351.288 190.35,356.962 195.5,361.75"/>
                    <path d="M447.75,331.75C467.328,327.675 476.172,332.908 477.5,342.25"/>
                </g>
                <g id="front-foot-frame-05-fg" class="init-offset-front-foot">
                    <path d="M259.75,313.5C254.948,309.899 245.402,308.593 236.518,312.046C225.19,316.45 218.162,327.703 219.25,339.25C220.154,348.848 223.122,352.783 230.25,360"/>
                    <path d="M275,328.5C276.895,323.5 281.038,320.52 285.195,319.101C295.62,315.541 305.022,318.971 312.75,329"/>
                    <path d="M337.75,341C348.493,331.257 357.518,326.478 368.5,325.5C381.278,324.362 389.51,330.091 388.375,339.235"/>
                    <path d="M410.25,350.25C419.285,340.081 425.013,339.558 428.734,342.272C431.597,344.361 432.884,348.311 430.25,353"/>
                    <path d="M448.75,353.75C454.927,346.358 463.111,344.639 471.23,347.303C475.965,348.855 479.854,351.892 479.25,358C487.694,355.5 492.972,358.917 493.5,360.75"/>
                    <path d="M388.19,360.021L389.94,354.521"/>
                    <path d="M281.44,361.521L279.44,359.521"/>
                </g>
                <path id="front-foot-frame-05-fill" class="init-offset-front-foot foreground-fill" d="M376.25,389.304C350.715,389.304 324.443,389 307.75,389C295.531,389 259.064,391.538 229.817,364.567C204.29,341.027 227.833,306.22 252.015,310.589C260.837,312.183 265.669,316.934 268.45,319.267C270.723,321.173 272.287,321.487 287.433,319.127C311.419,315.389 320.029,329.323 334.843,334.691C343.264,337.742 346.599,328.598 371.183,325.783C390.534,323.568 398.429,341.707 408.517,341.617C428.896,341.434 437.343,344.125 446.67,345.251C454.733,346.224 459.074,346.585 469.281,348.035C473.954,348.699 476.543,353.866 480.028,355.77C484.812,358.384 489.956,357.945 492.404,359.469C510.118,370.499 483.506,384.133 464.281,386.561C449.083,388.48 379.869,389.304 376.25,389.304Z"/>
            </g>
            <g id="front-foot-frame-06">
                <g id="front-foot-frame-06-bg" class="init-offset-front-foot">
                    <path d="M221.971,281.844C206.397,279.931 197.861,295.471 206,307C183.567,305.963 181.432,330.454 188.5,340C180.233,341.538 173.1,348.462 173,358.5"/>
                    <path d="M456.5,328.75C472.828,319.675 483.422,326.158 481.25,335.75"/>
                    <path d="M219.75,280.25C219.75,255.795 239.488,246.169 255.5,245.695C267.398,245.343 278.585,250.94 284.25,258.25"/>
                    <path d="M316.75,252C305.906,247.953 294.294,249.5 286.5,252.75"/>
                </g>
                <g id="front-foot-frame-06-fg" class="init-offset-front-foot">
                    <path d="M251.75,306.5C244.448,304.148 236.124,302.772 227.268,306.296C213.69,311.7 207.912,324.703 209,337.25C209.833,346.854 213.622,352.533 221.25,359.5"/>
                    <path d="M275.25,314.5C282.888,308.984 297.881,303.201 310.25,315.75"/>
                    <path d="M349.95,331.8C361.092,324.057 368.741,321.696 375.9,321.1C389.325,319.982 396.31,325.291 396.775,333.834"/>
                    <path d="M421.05,338.25C421.485,329.281 428.587,327.822 432.334,329.272C436.817,331.008 439.884,337.511 434.65,343"/>
                    <path d="M454.95,343.75C469.582,335.066 480.905,344.398 483.05,352.4C494.894,350.7 496.772,354.717 497.3,356.55"/>
                    <path d="M390.79,353.621L393.54,349.121"/>
                    <path d="M261.752,330.959L258.69,327.771"/>
                    <path d="M276.978,355.518L275.999,353.962"/>
                    <path d="M330.853,326.831L330.749,326.712"/>
                </g>
                <path id="front-foot-frame-06-fill" class="init-offset-front-foot foreground-fill" d="M359.583,388.804C334.048,388.804 323.443,388.5 306.75,388.5C294.531,388.5 248.202,392.051 220.567,359.317C197.336,331.799 217.159,300.112 246.732,305.42C256.704,307.209 265.884,314.55 284.766,310.127C300.63,306.41 309.169,313.659 314.8,317.54C324.254,324.056 331.758,330.853 339.26,330.107C349.659,329.074 349.608,325.969 372.85,322.117C390.443,319.2 393.447,325.65 405.079,334.705C414.163,341.776 418.83,340.246 429.897,341.348C451.705,343.519 469.881,343.355 482.033,350.233C491.539,355.613 496.724,361.504 497.697,366.944C499.258,375.669 483.567,384.275 469.267,385.95C459.247,387.124 371.014,388.804 359.583,388.804Z"/>
            </g>
            <g id="front-foot-frame-07">
                <g id="front-foot-frame-07-bg" class="init-offset-front-foot">
                    <path d="M155.75,356.75C150.25,344.493 161.667,335.34 170.25,331C168.449,320.446 172.613,313.336 180.152,309.33"/>
                    <path d="M187,312.5C175.373,304.969 173.554,293.041 173.5,287C173.372,272.773 180.787,262.975 189.06,258.872C197.001,254.934 207.924,256.59 213,259.75C213,245.029 220.984,237.589 229.183,232.398C239.664,225.763 253.378,225.174 262.811,226.922C271.32,228.499 276.27,231.087 280.25,236.5"/>
                    <path d="M290.25,231.5C297.937,227.656 311.543,229.214 317.884,232.864"/>
                    <path d="M470.25,321C482.66,318.023 485.602,320.378 487.741,321.923C491.42,324.58 491.522,330.358 487.775,333.136"/>
                </g>
                <g id="front-foot-frame-07-fg" class="init-offset-front-foot">
                    <path d="M258.589,328.494L254.089,322.244"/>
                    <path d="M259.589,280.494L258.589,278.244"/>
                    <path d="M457.25,337C460.644,331.679 468.056,331.429 474.059,333.031C480.732,334.811 486.46,339.923 489.75,349.75C498.21,346.96 503.29,349.04 504.5,352.75"/>
                    <path d="M426,330.5C428.5,334.5 432.691,334.536 435.5,333C439.453,330.838 440.833,326.679 439.333,323.429C437.31,319.045 432.883,317.519 429,319.5C424.912,321.586 423.5,326.5 426,330.5Z"/>
                    <path d="M240.75,299.25C232.43,295.088 219.847,294.891 210.643,299.826C196.572,307.37 190.008,321.64 191.75,337.5C192.83,347.328 199.141,353.54 204.25,358.75"/>
                    <path d="M279.5,298.5C290.802,293.974 303.997,299.247 309.5,303.25"/>
                    <path d="M395.339,347.494L397.589,343.744"/>
                    <path d="M428.402,358.744L428.589,358.494"/>
                    <path d="M272.589,304.494L272.839,304.244"/>
                    <path d="M272.021,348.595L272.075,348.658"/>
                    <path d="M356.75,319.75C365.474,314.013 373.73,311.748 381.75,311.25C393.226,310.537 402.202,320.5 399,330"/>
                </g>
                <path id="front-foot-frame-07-fill" class="init-offset-front-foot foreground-fill" d="M362.333,389.054C336.798,389.054 322.693,389 306,389C293.781,389 241.548,392.962 206.233,361.983C170.223,330.394 199.614,287.741 242.117,298.85C255.573,302.367 261.818,308.15 275.266,300.793C284.272,295.867 292.932,296.282 299.596,297.694C308.583,299.598 320.767,313.801 332.267,318.069C339.348,320.697 353.343,320.08 370.183,313.117C379.905,309.097 390.529,311.828 398.671,319.47C406.16,326.499 404.725,334.242 427.54,339.307C439.031,341.858 465.474,340.147 476.039,342.326C491.921,345.603 520.534,368.045 485.183,381.033C464.934,388.473 373.764,389.054 362.333,389.054ZM425,323.667C421.399,329.491 429.205,335.439 434,333.333C442.616,329.55 440.333,324.667 437,321.667C433.667,318.667 428.444,318.096 425,323.667Z"/>
            </g>
            <g id="front-foot-frame-08">
                <g id="front-foot-frame-08-bg" class="init-offset-front-foot">
                    <path d="M167.6,301.4C157.666,304.4 155.4,313.956 156,321.6C151.635,323 146.6,326.455 144.6,331"/>
                    <path d="M140.4,343.15C140.271,346.208 140.729,348.855 141.6,351.6"/>
                    <path d="M171.4,260.6C182.88,235.64 204.12,236.76 213.8,243.4"/>
                    <path d="M167.863,275.338C167.429,279.52 167.683,281.63 168.125,285"/>
                    <path d="M211.5,233.167C217.107,213.43 232.48,206.146 246.658,205.208C259.455,204.361 269.79,207.651 276.5,214.167"/>
                    <path d="M296.333,225.667C303.922,224.5 312.42,223.92 320.5,229.833"/>
                    <path d="M474.257,320.886C484.652,313.089 491.947,322.753 486.264,326.788"/>
                </g>
                <g id="front-foot-frame-08-fg" class="init-offset-front-foot">
                    <path d="M249.256,314.827L247.756,312.244"/>
                    <path d="M250.756,258.827L249.923,256.744"/>
                    <path d="M465.225,329.864C480.232,327.977 488.626,334.59 490.417,345.917C497.376,343.626 501.29,345.207 503.833,348.25"/>
                    <path d="M430.808,323.655C432.282,326.015 434.754,326.036 436.411,325.13C438.742,323.855 439.223,321.402 438.338,319.485C437.145,316.899 434.7,316.333 432.41,317.501C429.999,318.731 429.333,321.296 430.808,323.655Z"/>
                    <path d="M366.417,312.917C374.307,307.846 381.719,307.016 388.417,307.25C399.892,307.651 407.869,317.333 404.667,326.833"/>
                    <path d="M228.25,292.75C220.763,291.755 211.347,290.891 202.977,295.826C184.032,306.994 184.33,325.252 186.25,334.333C187.895,342.113 192.141,349.54 197.25,354.75"/>
                    <path d="M282.333,291C293.135,287.974 304.83,292.58 311,297.417"/>
                    <path d="M432.173,355.66L433.589,353.41"/>
                    <path d="M269.756,293.66L270.006,293.41"/>
                    <path d="M272.021,348.595L272.075,348.658"/>
                </g>
                <path id="front-foot-frame-08-fill" class="init-offset-front-foot foreground-fill" d="M345.498,388.514C330.167,388.431 320.901,388.177 308,388.25C263.531,388.5 222.317,383.15 198.9,356.983C167.15,323.247 191.504,282.676 234.033,293.683C246.656,296.95 260.318,297.983 268.766,295.127C291.606,287.404 311.446,294.738 316.8,302.873C318.632,305.658 328.831,315.004 341.354,316.087C356.599,317.406 375.047,310.216 382.992,311.236C400.926,313.538 404.242,335.342 436.315,337.654C449.909,338.634 461.495,339.578 472.783,342.286C516.606,352.797 503.314,374.241 484.581,380.776C460.513,389.172 361.273,388.599 345.498,388.514ZM429.756,319.805C427.564,323.352 432.317,326.973 435.236,325.691C440.483,323.388 439.093,320.414 437.063,318.588C435.033,316.761 431.853,316.413 429.756,319.805Z"/>
            </g>
            <g id="front-foot-frame-09">
                <g id="front-foot-frame-09-bg" class="init-offset-front-foot">
                    <path d="M131.583,326.667C130.972,328.771 130.361,331.625 130.5,334.167"/>
                    <path d="M140.4,309.2C143,306.334 144.6,304.867 147.8,304.4C147.447,301.322 147.309,298.849 148.589,295.973C150.934,290.703 155.954,286.565 160,287.6"/>
                    <path d="M164.25,246.35C168.308,239.428 172.85,234.623 177.265,231.082C188.431,222.126 199.864,222.335 208.55,224.8"/>
                    <path d="M200.6,212.8C207.57,196.948 220.403,188.611 232.004,186.105C246.65,182.941 256.236,185.982 262,189.6"/>
                    <path d="M300.8,220.8C308.363,219.859 316.116,221.716 320.8,225.6"/>
                    <path d="M161.9,264.5L161.9,264.3"/>
                    <path d="M480.372,321.305C481.075,323.126 482.687,323.933 484.417,323.524C486.458,323.041 486.996,321.817 486.996,320.224C486.996,318.631 484.846,316.966 482.736,317.649C480.626,318.332 479.851,319.958 480.372,321.305Z"/>
                </g>
                <g id="front-foot-frame-09-fg" class="init-offset-front-foot">
                    <path d="M471.6,327.8C485.405,327.325 490.357,337.238 490.2,343.4C492.866,343.2 495.534,342.8 499.2,344.4"/>
                    <path d="M434.388,353.29L435.988,350.29"/>
                    <path d="M376.5,306.917C390.396,303.175 399.547,304.889 404.212,310.63C407.051,314.125 408.604,318.591 407.5,325.583"/>
                    <path d="M287.667,286.333C299.555,286.167 303.445,287.5 310,291.833"/>
                    <path d="M214.333,287.333C192.619,288.157 182.224,304.518 180,318.833C178.016,331.605 180.379,341.166 188.5,349.5"/>
                    <path d="M238.906,299.963L238.023,297.974"/>
                    <path d="M430.601,319.748C431.902,321.83 434.685,321.849 436.147,321.049C438.205,319.924 438.924,317.359 438.143,315.666C437.089,313.384 434.584,312.989 432.563,314.021C430.434,315.107 429.299,317.665 430.601,319.748Z"/>
                    <path d="M243.149,240.409L241.949,237.209"/>
                </g>
                <path id="front-foot-frame-09-fill" class="init-offset-front-foot foreground-fill" d="M308.75,387.5C296.531,387.5 227.059,393.883 193.9,358.65C162.15,324.914 185.024,278.671 227.617,289.433C237.615,291.96 257.777,296.21 268.516,291.877C295.249,281.091 310.096,290.312 315.8,298.207C332.363,321.131 351.577,310.803 383.559,310.921C402.097,310.99 410.918,336.405 446.232,338.222C465.624,339.219 479.772,343.495 490.272,348.442C506.119,355.909 503.681,368.388 495.639,375.545C477.048,392.089 332.131,387.5 308.75,387.5ZM430.089,316.139C427.897,319.685 432.65,323.307 435.569,322.025C440.816,319.721 439.426,316.748 437.396,314.921C435.367,313.094 432.186,312.747 430.089,316.139Z"/>
            </g>
            <g id="front-foot-frame-10">
                <g id="front-foot-frame-10-bg" class="init-offset-front-foot">
                    <path d="M128.996,324.067C128.572,325.108 128.336,326.025 128.287,326.879"/>
                    <path d="M141.6,298.6C142.419,293.659 148.018,285.069 155.2,283.6"/>
                    <path d="M161.05,246.95C161.708,238.228 169.303,230.631 173.865,227.282C184.431,219.526 192.663,219.135 200.75,220"/>
                    <path d="M198.2,205.8C205.97,191.348 220.102,184.882 230.603,182.705C242.361,180.267 252.836,182.382 259.4,185.6"/>
                    <path d="M306.4,217.6C314.363,217.059 317.916,219.316 321.8,223.4"/>
                    <path d="M484.773,319.757C485.029,320.418 485.451,320.711 486.079,320.562C486.82,320.387 486.907,319.943 486.907,319.364C486.907,318.786 486.235,318.181 485.469,318.429C484.703,318.677 484.584,319.267 484.773,319.757Z"/>
                </g>
                <g id="front-foot-frame-10-fg" class="init-offset-front-foot">
                    <path d="M238.211,229.471L238.136,229.271"/>
                    <path d="M480.225,327.175C487.78,329.45 490.607,334.863 492.075,340.15C494.741,339.95 496.409,340.175 499.2,340.9"/>
                    <path d="M437.388,349.915L437.488,349.727"/>
                    <path d="M388.155,301.665C396.532,300.967 401.983,303.011 405.812,307.23C408.838,310.565 410.403,312.791 410.5,320.583"/>
                    <path d="M293.667,282.733C303.555,282.966 305.845,285.3 310.8,289.233"/>
                    <path d="M204.733,286.533C191.219,287.557 178.183,301.433 176.6,315.833C175.415,326.605 178.579,339.166 184.7,345.5"/>
                    <path d="M233.531,289.088L233.46,288.974"/>
                    <path d="M432.705,316.383C433.519,317.685 434.884,317.947 435.798,317.447C437.086,316.743 437.535,315.264 437.047,314.205C436.388,312.778 434.946,312.406 433.682,313.051C432.351,313.73 431.891,315.08 432.705,316.383Z"/>
                </g>
                <path id="front-foot-frame-10-fill" class="init-offset-front-foot foreground-fill" d="M291,389.25C278.781,389.25 215.067,384.317 191.65,358.15C159.9,324.414 178.918,277.948 221.867,287.183C233.615,289.71 252.785,295.328 271.266,290.627C300.015,283.313 309.047,285.071 313.55,293.707C315.515,297.476 327.172,311.656 346.999,310.673C363.859,309.838 377.308,307.604 392.925,311.896C408.819,316.264 422.216,335.398 438.55,336.703C457.607,338.225 468.336,340.588 480.437,344.95C512.643,356.56 500.352,371.889 490.759,378.523C474.933,389.466 322.016,389.25 291,389.25Z"/>
            </g>
            <g id="front-foot-frame-11">
                <g id="front-foot-frame-11-bg" class="init-offset-front-foot">
                    <path d="M486.338,317.073L486.469,316.977"/>
                    <path d="M138.286,289.905C139.571,286.633 143.738,282.238 147.143,280.524"/>
                    <path d="M123.349,322.995L123.537,323.12"/>
                    <path d="M191.5,215.8C176.296,215.6 161.9,227.074 159.5,244.4"/>
                    <path d="M197.6,196.8C206.66,184.254 219.423,179.003 230.207,178.315C239.465,177.723 248.852,179.799 254.8,182.6"/>
                    <path d="M313.606,214.989C316.545,216.006 319.788,218.036 322.299,220.868"/>
                </g>
                <g id="front-foot-frame-11-fg" class="init-offset-front-foot">
                    <path d="M191.617,286.55C173.554,297.919 171.708,311.892 172.417,321.833C173.201,332.829 177.089,339.619 180.735,343.647"/>
                    <path d="M300.333,280.667C304.657,281.465 309.006,285.212 311.015,287.487"/>
                    <path d="M399.5,298.792C409.398,301.773 413.102,309.56 411.542,315.833"/>
                    <path d="M438.688,346.5L438.855,346.334"/>
                    <path d="M486.33,328.771C488.056,330.901 490.185,333.164 492.158,337.658C494.718,337.506 496.806,337.67 498.967,338.03"/>
                    <path d="M433.762,313.012C434.435,314.122 436.016,314.133 436.772,313.706C437.837,313.106 437.923,311.882 437.519,310.98C436.974,309.763 435.679,309.124 434.633,309.674C433.533,310.253 433.089,311.902 433.762,313.012Z"/>
                </g>
                <path id="front-foot-frame-11-fill" class="init-offset-front-foot foreground-fill" d="M493.092,374.973C475.392,393.459 316.591,389.75 290.25,389.75C278.031,389.75 212.733,383.983 189.317,357.817C157.567,324.08 177.961,279.911 215.7,286.767C236.368,290.521 257.607,297.649 275.408,290.431C315.638,274.118 317.579,305.716 332.091,308.38C350.207,311.704 368.954,309.601 386.722,311.503C400.183,312.943 412.852,323.411 425.068,329.981C436.908,336.35 448.323,338.816 459.621,340.897C470.231,342.852 475.998,343.967 484.967,348.273C497.697,354.384 505.208,362.319 493.092,374.973Z"/>
            </g>
            <g id="front-foot-frame-12">
                <g id="front-foot-frame-12-bg" class="init-offset-front-foot">
                    <path d="M486.338,317.073L486.469,316.977"/>
                    <path d="M138.686,283.905C140.971,280.833 143.488,279.138 146.268,277.486"/>
                    <path d="M123.349,322.995L123.537,323.12"/>
                    <path d="M185.5,213.8C173.296,213.4 160.1,228.874 158.5,241.4"/>
                    <path d="M202,188.8C215.991,171.718 243.496,174.054 251.8,179.8"/>
                    <path d="M317.32,213.417C319.831,215.006 321.502,216.751 322.87,218.868"/>
                </g>
                <g id="front-foot-frame-12-fg" class="init-offset-front-foot">
                    <path d="M186.617,287.15C163.886,298.78 169.375,329.977 173.735,333.847"/>
                    <path d="M304.871,280.092C308.369,281.752 310.543,283.037 312.428,284.875"/>
                    <path d="M404.071,298.077C410.112,302.202 414.388,307.274 413.399,313.119"/>
                    <path d="M440.813,344.625L440.98,344.459"/>
                    <path d="M489.58,332.146C490.806,333.151 492.06,334.164 493.283,335.658C495.218,336.131 496.181,336.295 497.842,336.655"/>
                    <path d="M435.466,311.412C435.667,311.743 436.139,311.746 436.364,311.619C436.682,311.44 436.707,311.074 436.587,310.805C436.424,310.442 436.038,310.252 435.726,310.416C435.398,310.588 435.265,311.08 435.466,311.412Z"/>
                </g>
                <path id="front-foot-frame-12-fill" class="init-offset-front-foot foreground-fill" d="M480.508,380.89C465.198,386.876 304.424,390.5 278.083,390.5C265.864,390.5 212.733,383.983 189.317,357.817C157.567,324.08 166.231,281.989 205.867,286.017C222.94,287.752 250.103,296.536 274.574,291.515C277.961,290.82 290.614,282.867 303.768,286.92C316.314,290.784 323.794,310.063 345.56,309.879C362.609,309.736 378.285,307.537 395.582,312.731C414.724,318.48 425.417,333.117 443.299,337.692C462.052,342.49 473.973,344.236 485.255,350.131C503.801,359.821 504.969,371.326 480.508,380.89Z"/>
            </g>
            <g id="front-foot-frame-13">
                <g id="front-foot-frame-13-bg" class="init-offset-front-foot">
                    <path d="M174,214.25C168.129,217.447 159.75,226.976 156.5,237.25"/>
                    <path d="M143,275.125C141.584,276.25 140.792,277.125 139.5,278.875"/>
                    <path d="M206.75,180.75C216.755,171.895 234.476,171.693 245.25,175.5"/>
                    <path d="M321,213.188C321.917,214.291 323.084,215.646 324,216.938"/>
                </g>
                <g id="front-foot-frame-13-fg" class="init-offset-front-foot">
                    <path d="M175.5,291C167.018,299.482 164.5,309.456 166.5,326"/>
                    <path d="M311.874,279.6L312.061,279.725"/>
                    <path d="M410.333,299.5C412.428,301.491 414.478,305.667 414.667,309.167"/>
                    <path d="M434.207,308.907L434.129,309.017"/>
                    <path d="M442.957,342.407L442.879,342.517"/>
                    <path d="M491.233,333.008C492.026,333.959 492.71,334.819 493.163,335.559C494.405,335.127 495.644,334.817 496.623,334.748"/>
                </g>
            </g>
            <g id="front-foot-frame-14">
                <g id="front-foot-frame-14-bg" class="init-offset-front-foot">
                    <path d="M141,274.104C139.834,274.791 139.041,275.354 138.125,276.292"/>
                    <path d="M212,175.875C221.63,170.395 235.101,171.568 242.875,174.125"/>
                    <path d="M322.714,212.33C323.631,213.184 324.012,213.592 324.616,214.384"/>
                    <path d="M170,214.875C164.742,218.5 159.72,226.38 156.875,235.375"/>
                </g>
                <g id="front-foot-frame-14-fg" class="init-offset-front-foot">
                    <path d="M169.667,294.833C163.351,305.982 163,314.79 164.333,326.833"/>
                    <path d="M313.874,277.725L314.061,277.85"/>
                    <path d="M412.917,301.167C413.845,302.575 414.811,304.417 415.583,307"/>
                    <path d="M433.064,307.336L432.986,307.445"/>
                    <path d="M442.957,342.407L442.879,342.517"/>
                    <path d="M492.942,332.571C494.046,333.73 494.416,334.072 496.123,334.185"/>
                </g>
            </g>
            <g id="front-foot-frame-15">
                <g id="front-foot-frame-15-bg" class="init-offset-front-foot">
                    <path d="M163,219.167C159.671,222.821 157.917,226.952 156.5,231"/>
                    <path d="M219.5,171.5C226.232,168.884 234.153,169.74 238.844,171.603"/>
                    <path d="M324.741,211.267L324.817,211.207"/>
                </g>
                <g id="front-foot-frame-15-fg" class="init-offset-front-foot">
                    <path d="M416.694,303.441L416.757,303.379"/>
                    <path d="M496.554,331.491L496.643,331.446"/>
                    <path d="M162.833,304.333C161.108,309.349 159.915,319.915 161.333,326.5"/>
                </g>
            </g>
            <g id="front-foot-frame-16">
                <g id="front-foot-frame-16-bg" class="init-offset-front-foot">
                    <path d="M157.812,221.479C155.234,225.321 154.792,227.64 154.437,231.25"/>
                    <path d="M222.75,168.875C228.607,166.884 232.152,166.99 237.594,167.978"/>
                    <path d="M324.741,211.267L324.817,211.207"/>
                </g>
                <g id="front-foot-frame-16-fg" class="init-offset-front-foot">
                    <path d="M418.48,303.012L418.542,302.95"/>
                    <path d="M496.554,331.491L496.643,331.446"/>
                    <path d="M159.262,310.333C157.822,315.777 157.772,320.2 158.619,325.786"/>
                </g>
            </g>
            <g id="front-foot-frame-17">
                <g id="front-foot-frame-17-bg" class="init-offset-front-foot">
                    <path d="M153.81,224.524C153.175,226.397 152.855,227.955 152.667,229.738"/>
                    <path d="M227.179,165.795C230.466,165.382 232.457,165.529 234.125,165.491"/>
                </g>
                <g id="front-foot-frame-17-fg" class="init-offset-front-foot">
                    <path d="M156.107,316.571C155.783,319.332 155.632,322.196 156.25,324.964"/>
                </g>
            </g>
            <g id="front-foot-frame-18">
                <g id="front-foot-frame-18-bg" class="init-offset-front-foot">
                    <path d="M151.675,228.373C151.675,228.373 151.585,228.913 151.421,229.495C151.229,230.179 151.145,230.921 151.145,230.921"/>
                    <path d="M228.741,165.045C230.216,164.757 230.894,164.717 232.125,164.616"/>
                </g>
                <g id="front-foot-frame-18-fg" class="init-offset-front-foot">
                    <path d="M154.357,318.946C154.845,320.832 155.319,321.946 155.75,323.152"/>
                </g>
            </g>
            <g id="front-foot-frame-19">
                <g id="front-foot-frame-19-bg" class="init-offset-front-foot">
                    <path d="M229.882,164.625L229.911,164.518"/>
                    <path d="M151.205,232.381L151.267,232.381"/>
                </g>
                <g id="front-foot-frame-19-fg" class="init-offset-front-foot">
                    <path d="M154.05,321.589L154.121,321.553"/>
                </g>
            </g>
        </g>

        <circle id="node" class="node" cx="2.8" cy="2.8" r="2.3"/>

        <g id="mountains-fg">
            <path d="M2115.538,111.897l-54.707,19.664"/>
            <path d="M2166.157,127.664l-46.048-15.775"/>
            <path d="M2219.229,134.364c0-0.106,0.018-0.207,0.031-0.309l-48.439-5.363"/>
            <path d="M1544.031,169.051l145.21-39.121"/>
            <path d="M1370.074,142.482l169.25,26.821"/>
            <path d="M1344.682,152.968l20.81-9.836"/>
            <path d="M1320.068,150.72l20.066,2.963"/>
            <path d="M1231.647,175.397l83.752-24.359"/>
            <path d="M1102.051,149.361l124.905,26.235"/>
            <path d="M926.209,166.419l171.106-17.312"/>
            <path d="M888.926,150.192l32.667,15.529"/>
            <path d="M843.525,142.732l40.844,6.106"/>
            <path d="M738.198,158.642l100.595-15.853"/>
            <path d="M602.745,123.325l130.728,35.114"/>
            <path d="M527.892,144.421l70.177-21.093"/>
            <path d="M469.645,122.983l53.663,21.267"/>
            <path d="M409.125,146.432l56.047-23.435"/>
            <path d="M369.702,143.38l34.822,3.745"/>
            <path d="M294.493,172.462l70.598-28.459"/>
            <path d="M196.554,133.507l93.45,38.898"/>
            <path d="M134.692,141.75l57.255-8.829"/>
            <path d="M5.204,105.625l124.811,35.846"/>
            <path d="M2501.959,105.268l126.03,36.196"/>
            <path d="M2432.023,128.263l65.303-22.944"/>
            <path d="M2400.979,128.802c0-0.007-0.002-0.014-0.002-0.021l26.377,0.274"/>
            <path d="M2308.802,173.148l87.594-43.336"/>
            <path d="M2223.824,135.352l80.646,37.793"/>
            <path d="M2016.908,133.729l39.268-1.266"/>
            <path d="M1957.838,154.147l54.396-19.596c-0.078-0.237-0.131-0.486-0.131-0.749
                c0-0.176,0.021-0.347,0.058-0.513"/>
            <path d="M1858.859,123.078l94.436,31.106"/>
            <path d="M1772.762,143.614l81.469-20.718"/>
            <path d="M1693.938,129.768l74.152,13.99"/>
            <g id="mountains-fg-nodes" class="nodes" transform="translate(-2.8 -0.4)">
                <use xlink:href="#node" x="5.279" y="104.612" transform="translate(-2.4 -2)"/>
                <use xlink:href="#node" x="132.323" y="139.708"/>
                <use xlink:href="#node" x="194.323" y="130.208"/>
                <use xlink:href="#node" x="292.24" y="170.875"/>
                <use xlink:href="#node" x="367.323" y="140.708"/>
                <use xlink:href="#node" x="406.906" y="144.958"/>
                <use xlink:href="#node" x="467.406" y="119.708"/>
                <use xlink:href="#node" x="525.573" y="142.625"/>
                <use xlink:href="#node" x="600.406" y="120.375"/>
                <use xlink:href="#node" x="735.823" y="156.542"/>
                <use xlink:href="#node" x="841.156" y="139.958"/>
                <use xlink:href="#node" x="886.739" y="146.792"/>
                <use xlink:href="#node" x="923.823" y="164.208"/>
                <use xlink:href="#node" x="1099.698" y="146.458"/>
                <use xlink:href="#node" x="1229.323" y="173.583"/>
                <use xlink:href="#node" x="1317.698" y="147.958"/>
                <use xlink:href="#node" x="1342.51" y="151.583"/>
                <use xlink:href="#node" x="1367.698" y="139.771"/>
                <use xlink:href="#node" x="1541.698" y="167.208"/>
                <use xlink:href="#node" x="1693.888" y="128.741" transform="translate(-2.3 -1.8)"/>
                <use xlink:href="#node" x="1770.448" y="141.833"/>
                <use xlink:href="#node" x="1856.573" y="124.771" transform="translate(0 -4.8)"/>
                <use xlink:href="#node" x="1955.573" y="152.521"/>
                <use xlink:href="#node" x="2014.511" y="131.396"/>
                <use xlink:href="#node" x="2060.831" y="131.561" transform="translate(-2.3 -1.6)"/>
                <use xlink:href="#node" x="2117.823" y="113.583" transform="translate(0 -4.8)"/>
                <use xlink:href="#node" x="2168.448" y="130.771" transform="translate(0 -4.8)"/>
                <use xlink:href="#node" x="2223.824" y="135.352" transform="translate(-2.2 -3.4)"/>
                <use xlink:href="#node" x="2306.636" y="171.771"/>
                <use xlink:href="#node" x="2398.573" y="131.208" transform="translate(0 -4.8)"/>
                <use xlink:href="#node" x="2429.761" y="131.458" transform="translate(0 -4.8)"/>
                <use xlink:href="#node" x="2499.636" y="107.083" transform="translate(0 -4.8)"/>
                <use xlink:href="#node" x="2630.295" y="139.708"/>
            </g>
        </g>
        <g id="mountains-bg">
            <path d="M430.404,4.476l67.632,47.188"/>
            <path d="M346.683,62.189l79.771-57.656"/>
            <path d="M502.39,53.487l63.651,11.803"/>
            <path d="M1735.196,30.839l28.96,9.467"/>
            <path d="M1708.652,6.329l22.533,22.091"/>
            <path d="M1649.48,45.864l55.455-39.858"/>
            <path d="M1579.917,49.99c0-0.062-0.014-0.119-0.019-0.179l65.216-2.477"/>
            <path d="M1508.231,86.906l67.108-35.894"/>
            <path d="M1485.417,76.573c0,0.394-0.104,0.759-0.271,1.087l18.772,9.315"/>
            <path d="M1447.492,78.746l33.125-2.045c-0.002-0.043-0.013-0.084-0.013-0.128"/>
            <path d="M1338.397,34.37l104.458,43.585"/>
            <path d="M1243.346,80.107l90.622-45.607"/>
            <path d="M1199.031,55.021l40.03,24.912"/>
            <path d="M1141.285,89.341l53.668-34.311"/>
            <path d="M1096.376,78.252l40.524,11.799"/>
            <path d="M1039.581,15.238l52.888,60.574"/>
            <path d="M1018.948,20.717l16.679-6.383"/>
            <path d="M986.848,59.167l28.339-35.71"/>
            <path d="M913.518,89.141l69.599-27.205"/>
            <path d="M874.566,54.874l34.882,33.507"/>
            <path d="M767.591,74.798l102.907-21.079"/>
            <path d="M732.137,50.824l31.078,22.982"/>
            <path d="M698.175,47.697l29.648,1.58c-0.001,0.037-0.011,0.071-0.011,0.108"/>
            <path d="M654.827,18.308l38.979,27.895"/>
            <path d="M570.495,64.524l80.277-46.372"/>
            <path d="M2619.145,38.73l43.252,45.32"/>
            <path d="M2585.618,22.27l29.64,13.739"/>
            <path d="M2538.141,55.964l43.328-33.227"/>
            <path d="M2493.769,49.512l40.019,7.442"/>
            <path d="M2425.515,63.849l63.549-14.244"/>
            <path d="M2293.483,3.947l127.457,59.437"/>
            <path d="M2261.346,20.165l27.898-16.066"/>
            <path d="M2225.367,13.637l31.552,7.169"/>
            <path d="M2105.556,87.403l115.387-73.036"/>
            <path d="M2067.25,63.091l34.263,24.224"/>
            <path d="M2001.818,59.805l61.044,1.851c-0.001,0.028-0.009,0.055-0.009,0.084"/>
            <path d="M1939.941,10.68l57.63,47.461"/>
            <path d="M1856.133,46.867l79.741-36.783"/>
            <path d="M1817.609,83.033l34.604-33.521"/>
            <path d="M1768.252,42.625l45.777,40.467"/>
            <path d="M83.537,22.752l-42.38,33.012"/>
            <path d="M117.315,36.008L87.675,22.27"/>
            <path d="M162.781,82.298l-41.58-43.568"/>
            <path d="M236.779,50.748l-70.043,32.251"/>
            <path d="M307.771,72.345l34.614-8.213"/>
            <path d="M241.237,50.531l61.873,21.547"/>
            <g id="mountains-bg-nodes" class="nodes" transform="translate(-2.8 -5.2)">
                <use xlink:href="#node" x="39.338" y="59.729"/>
                <use xlink:href="#node" x="85.463" y="23.729"/>
                <use xlink:href="#node" x="119.463" y="39.479"/>
                <use xlink:href="#node" x="164.526" y="81.542" transform="translate(0 4.8)"/>
                <use xlink:href="#node" x="238.969" y="52.167"/>
                <use xlink:href="#node" x="305.406" y="70.354" transform="translate(0 4.8)"/>
                <use xlink:href="#node" x="342.313" y="63.573" transform="translate(2.4 2.4)"/>
                <use xlink:href="#node" x="428.406" y="5.542"/>
                <use xlink:href="#node" x="500.031" y="55.417"/>
                <use xlink:href="#node" x="566.041" y="65.29" transform="translate(2.4 2.8)"/>
                <use xlink:href="#node" x="652.844" y="19.354"/>
                <use xlink:href="#node" x="695.781" y="49.979"/>
                <use xlink:href="#node" x="730.219" y="51.792"/>
                <use xlink:href="#node" x="765.219" y="72.729" transform="translate(0 4.8)"/>
                <use xlink:href="#node" x="872.844" y="55.604"/>
                <use xlink:href="#node" x="911.26" y="87.542" transform="translate(0 4.8)"/>
                <use xlink:href="#node" x="985.344" y="63.438"/>
                <use xlink:href="#node" x="1019.125" y="21.615" transform="translate(-2.4 2.4)"/>
                <use xlink:href="#node" x="1037.885" y="15.938"/>
                <use xlink:href="#node" x="1094.073" y="75.188" transform="translate(0 4.8)"/>
                <use xlink:href="#node" x="1139.239" y="88.188" transform="translate(0 4.8)"/>
                <use xlink:href="#node" x="1196.989" y="56.167"/>
                <use xlink:href="#node" x="1241.156" y="78.688" transform="translate(0 4.8)"/>
                <use xlink:href="#node" x="1336.156" y="35.917"/>
                <use xlink:href="#node" x="1445.094" y="76.417" transform="translate(0 4.8)"/>
                <use xlink:href="#node" x="1483.011" y="74.167" transform="translate(0 4.8)"/>
                <use xlink:href="#node" x="1506.094" y="85.583" transform="translate(0 4.8)"/>
                <use xlink:href="#node" x="1577.511" y="52.396"/>
                <use xlink:href="#node" x="1647.511" y="49.646"/>
                <use xlink:href="#node" x="1706.927" y="7.063"/>
                <use xlink:href="#node" x="1732.927" y="32.479"/>
                <use xlink:href="#node" x="1766.427" y="43.479"/>
                <use xlink:href="#node" x="1815.844" y="82.25" transform="translate(0 4.8)"/>
                <use xlink:href="#node" x="1853.927" y="50.229"/>
                <use xlink:href="#node" x="1938.094" y="11.563"/>
                <use xlink:href="#node" x="1999.427" y="62.063"/>
                <use xlink:href="#node" x="2065.261" y="64.146"/>
                <use xlink:href="#node" x="2103.511" y="86.25" transform="translate(0 4.8)"/>
                <use xlink:href="#node" x="2223.011" y="15.563"/>
                <use xlink:href="#node" x="2259.261" y="23.75"/>
                <use xlink:href="#node" x="2291.323" y="5.313"/>
                <use xlink:href="#node" x="2423.156" y="66.729"/>
                <use xlink:href="#node" x="2491.406" y="51.479"/>
                <use xlink:href="#node" x="2536.156" y="59.729"/>
                <use xlink:href="#node" x="2583.406" y="23.729"/>
                <use xlink:href="#node" x="2617.406" y="39.479"/>
            </g>
        </g>


        <!-- Masks -->
        <!-- Dimensions defined in CSS -->
        <clipPath id="mask-sprite-crop">
            <rect x="0" y="0"/>
        </clipPath>

        <mask id="mask-sprite-alpha" y="0" height="100%">
            <rect width="100%" height="100%" fill="#000"/>
            <use xlink:href="#sprite-alpha"/>
        </mask>

        <clipPath id="mask-pattern-mountains-tile-crop">
            <rect x="100px" y="0"/>
        </clipPath>

        <clipPath id="mask-pattern-mountains-crop">
            <rect x="0" y="0"/>
        </clipPath>

        <mask id="mask-dust-fill" y="0" height="100%">
            <rect width="100%" height="100%" fill="#fff"/>
            <g class="back-foot">
                <g class="foot-scaling">
                    <svg y="50%" x="50%">
                        <g class="back-foot-centering-offset">
                            <g class="back-foot-init-offset">
                                <use xlink:href="#back-foot-frame-01-fill" class="dust-frame frame-01 frame-mask"/>
                                <use xlink:href="#back-foot-frame-02-fill" class="dust-frame frame-02 frame-mask"/>
                                <use xlink:href="#back-foot-frame-03-fill" class="dust-frame frame-03 frame-mask"/>
                                <use xlink:href="#back-foot-frame-04-fill" class="dust-frame frame-04 frame-mask"/>
                                <use xlink:href="#back-foot-frame-05-fill" class="dust-frame frame-05 frame-mask"/>
                                <use xlink:href="#back-foot-frame-06-fill" class="dust-frame frame-06 frame-mask"/>
                                <use xlink:href="#back-foot-frame-07-fill" class="dust-frame frame-07 frame-mask"/>
                                <use xlink:href="#back-foot-frame-08-fill" class="dust-frame frame-08 frame-mask"/>
                                <use xlink:href="#back-foot-frame-09-fill" class="dust-frame frame-09 frame-mask"/>
                                <use xlink:href="#back-foot-frame-10-fill" class="dust-frame frame-10 frame-mask"/>
                                <use xlink:href="#back-foot-frame-11-fill" class="dust-frame frame-11 frame-mask"/>
                                <use xlink:href="#back-foot-frame-12-fill" class="dust-frame frame-12 frame-mask"/>
                            </g>
                        </g>
                    </svg>
                </g>
            </g>
            <g class="front-foot">
                <g class="foot-scaling">
                    <svg y="50%" x="50%">
                        <g class="front-foot-centering-offset">
                            <g class="front-foot-init-offset">
                                <use xlink:href="#front-foot-frame-01-fill" class="dust-frame frame-01 frame-mask"/>
                                <use xlink:href="#front-foot-frame-02-fill" class="dust-frame frame-02 frame-mask"/>
                                <use xlink:href="#front-foot-frame-03-fill" class="dust-frame frame-03 frame-mask"/>
                                <use xlink:href="#front-foot-frame-04-fill" class="dust-frame frame-04 frame-mask"/>
                                <use xlink:href="#front-foot-frame-05-fill" class="dust-frame frame-05 frame-mask"/>
                                <use xlink:href="#front-foot-frame-06-fill" class="dust-frame frame-06 frame-mask"/>
                                <use xlink:href="#front-foot-frame-07-fill" class="dust-frame frame-07 frame-mask"/>
                                <use xlink:href="#front-foot-frame-08-fill" class="dust-frame frame-08 frame-mask"/>
                                <use xlink:href="#front-foot-frame-09-fill" class="dust-frame frame-09 frame-mask"/>
                                <use xlink:href="#front-foot-frame-10-fill" class="dust-frame frame-10 frame-mask"/>
                                <use xlink:href="#front-foot-frame-11-fill" class="dust-frame frame-11 frame-mask"/>
                                <use xlink:href="#front-foot-frame-12-fill" class="dust-frame frame-12 frame-mask"/>
                            </g>
                        </g>
                    </svg>
                </g>
            </g>
        </mask>


        <!-- Patterns -->
        <!-- X value offset to match X value from tile-crop clipPath -->
        <pattern id="pattern-mountains-bg" x="-100px" y="0" width="2663px" height="185px" patternUnits="userSpaceOnUse">
            <g class="mountains" clip-path="url(#mask-pattern-mountains-tile-crop)">
                <use xlink:href="#mountains-bg"/>
                <use xlink:href="#mountains-bg-nodes"/>
            </g>
        </pattern>

        <pattern id="pattern-mountains-fg" x="-100px" y="0" width="2663px" height="185px" patternUnits="userSpaceOnUse">
            <g class="mountains" clip-path="url(#mask-pattern-mountains-tile-crop)">
                <use xlink:href="#mountains-fg"/>
                <use xlink:href="#mountains-fg-nodes"/>
            </g>
        </pattern>

    </defs>

    <style><![CDATA[

        /* Would be nice if FF supported calc on duration values... */
        * {
            --color-unique: #7b87de;
            /*--color: hsla(218,12%,53%,0.8);*/
            --color: hsl(218,12%,53%);
            --color-alpha: hsla(218,12%,53%,0.4);
            /*--color: hsla(218,18%,53%,0.4);*/ /* This can be used for SVGs within content since it matches the color-secondary var more when in close proximity */
            --frame-width: 292px; /* Sprite frame dimensions */
            --frame-height: 284px; /* Sprite frame dimensions */
            --frames: 28;
            --anim-duration: 1.75s;
            --anim-delay-back-foot: 1.312s; /* 75% */
            --anim-delay-front-foot: 0.35s; /* 20% */
            --background-crop-width: 840px;
            --pattern-mountains-width: 2498px; /* 2663px before tile-crop clipPath applied */
            --pattern-mountains-height: 179px;
            transform-origin: 50% 50%;
        }

        svg {
            overflow: visible;
        }

        path,
        circle {
            stroke-linecap: round;
            stroke-linejoin: round;
            stroke-miterlimit: 2;
            vector-effect: non-scaling-stroke;
        }

        .back-foot,
        .front-foot,
        .mountains {
            fill: none;
            stroke: var(--color);
            stroke-width: 2.5px;
        }

        .foreground-fill {
            fill: #000;
            stroke: none;
        }

        /* Apply to entire stroke container */
        .stroke-opacity {
            opacity: 0.4;
        }

        .init-offset-front-foot {
            transform: translate(730px,655px);
        }

        .init-offset-front-foot.foreground-fill {
            transform: translate(730px,665px);
        }

        .init-offset-back-foot {
            transform: translate(120px,610px);
        }

        .init-offset-back-foot.foreground-fill {
            transform: translate(95px,620px);
        }


        /* -------------------------------- Background --------------------------------  */

        @keyframes anim-mountains {
            0%     { transform: translateX(0); }
            100%   { transform: translateX(calc(-1 * var(--pattern-mountains-width))); }
        }

        .mountains {
            stroke: var(--color-alpha);
        }

        .mountains-movable-bg,
        .mountains-movable-fg {
            width: var(--pattern-mountains-width);
            height: var(--pattern-mountains-height);
            animation: anim-mountains 40s 0s infinite linear;
        }

        .mountains-movable-fg {
            animation-duration: 20s;
        }

        .mountains-movable-offset {
            transform: translateX(var(--pattern-mountains-width));
        }

        .mountains-movable-offset-2 {
            transform: translateX(calc(var(--pattern-mountains-width) * 2));
        }

        .mountains-movable-offset-3 {
            transform: translateX(calc(var(--pattern-mountains-width) * 3));
        }

        #mask-pattern-mountains-tile-crop rect {
            width: var(--pattern-mountains-width);
            height: var(--pattern-mountains-height);
        }

        #mask-pattern-mountains-crop rect {
            width: var(--background-crop-width);
            height: var(--pattern-mountains-height);
        }


        /* ----------------------------- Foot dust: general ---------------------------  */

        .back-foot-init-offset {
            transform: translate(-250px,-800px); /* aligns closer to 0,0 (w/ some spacing) */
        }

        .back-foot-centering-offset {
            transform: translate(-220px,-120px);
        }

        .front-foot-init-offset {
            transform: translate(-845px,-900px); /* aligns closer to 0,0 (w/ some spacing) */
        }

        .front-foot-centering-offset {
            transform: translate(-230px,-35px);
        }


        .foot-scaling {
            transform: scale(0.35) translate(20px,300px);
        }

        .sprite-centering-offset {
            transform: translate(calc(-1 * var(--frame-width) / 2 - 3px),14px);
        }


        /* ------------------------- Animation: foot alignment ------------------------  */

        @keyframes anim-foot-alignment {
            0%     { transform: translateX(10px); }
            100%   { transform: translateX(-400px); }
        }

        .back-foot {
            animation: anim-foot-alignment var(--anim-duration) var(--anim-delay-back-foot) infinite steps(var(--frames));
        }

        .front-foot {
            animation: anim-foot-alignment var(--anim-duration) var(--anim-delay-front-foot) infinite steps(var(--frames));
        }


        /* ----------------------------- Animation: sprite ----------------------------  */

        @keyframes anim-sprite {
            0%    { transform: translate(0,0); }
            100%  { transform: translate(calc((-1 * var(--frame-width)) * var(--frames)),0); }
        }

        .sprite {
            will-change: transform;
            animation: anim-sprite var(--anim-duration) 0s infinite steps(var(--frames));
        }

        #mask-sprite-crop rect {
            width: var(--frame-width);
            height: var(--frame-height);
        }


        /* -------------------------- Animation: dust frames --------------------------  */

        /* 100% / 28 frames = 3.571% */
        @keyframes anim-dust-frame-01  {   0%       {visibility: visible;}   3.571%    {visibility: hidden;}   }
        @keyframes anim-dust-frame-02  {   3.571%   {visibility: visible;}   7.142%    {visibility: hidden;}   }
        @keyframes anim-dust-frame-03  {   7.142%   {visibility: visible;}   10.713%   {visibility: hidden;}   }
        @keyframes anim-dust-frame-04  {   10.713%  {visibility: visible;}   14.284%   {visibility: hidden;}   }
        @keyframes anim-dust-frame-05  {   14.284%  {visibility: visible;}   17.855%   {visibility: hidden;}   }
        @keyframes anim-dust-frame-06  {   17.855%  {visibility: visible;}   21.426%   {visibility: hidden;}   }
        @keyframes anim-dust-frame-07  {   21.426%  {visibility: visible;}   24.997%   {visibility: hidden;}   }
        @keyframes anim-dust-frame-08  {   24.997%  {visibility: visible;}   28.568%   {visibility: hidden;}   }
        @keyframes anim-dust-frame-09  {   28.568%  {visibility: visible;}   32.139%   {visibility: hidden;}   }
        @keyframes anim-dust-frame-10  {   32.139%  {visibility: visible;}   35.710%   {visibility: hidden;}   }
        @keyframes anim-dust-frame-11  {   35.710%  {visibility: visible;}   39.281%   {visibility: hidden;}   }
        @keyframes anim-dust-frame-12  {   39.281%  {visibility: visible;}   42.852%   {visibility: hidden;}   }
        @keyframes anim-dust-frame-13  {   42.852%  {visibility: visible;}   46.423%   {visibility: hidden;}   }
        @keyframes anim-dust-frame-14  {   46.423%  {visibility: visible;}   49.994%   {visibility: hidden;}   }
        @keyframes anim-dust-frame-15  {   49.994%  {visibility: visible;}   53.565%   {visibility: hidden;}   }
        @keyframes anim-dust-frame-16  {   53.565%  {visibility: visible;}   57.136%   {visibility: hidden;}   }
        @keyframes anim-dust-frame-17  {   57.136%  {visibility: visible;}   60.707%   {visibility: hidden;}   }
        @keyframes anim-dust-frame-18  {   60.707%  {visibility: visible;}   64.278%   {visibility: hidden;}   }
        @keyframes anim-dust-frame-19  {   64.278%  {visibility: visible;}   67.849%   {visibility: hidden;}   }
        @keyframes anim-dust-frame-20  {   67.849%  {visibility: visible;}   71.420%   {visibility: hidden;}   }
        @keyframes anim-dust-frame-21  {   71.420%  {visibility: visible;}   74.991%   {visibility: hidden;}   }
        @keyframes anim-dust-frame-22  {   74.991%  {visibility: visible;}   78.562%   {visibility: hidden;}   }
        @keyframes anim-dust-frame-23  {   78.562%  {visibility: visible;}   82.133%   {visibility: hidden;}   }
        @keyframes anim-dust-frame-24  {   82.133%  {visibility: visible;}   85.704%   {visibility: hidden;}   }
        @keyframes anim-dust-frame-25  {   85.704%  {visibility: visible;}   89.275%   {visibility: hidden;}   }
        @keyframes anim-dust-frame-26  {   89.275%  {visibility: visible;}   92.846%   {visibility: hidden;}   }
        @keyframes anim-dust-frame-27  {   92.846%  {visibility: visible;}   96.417%   {visibility: hidden;}   }
        @keyframes anim-dust-frame-28  {   96.417%  {visibility: visible;}   100%      {visibility: hidden;}   }

        .dust-frame {
            visibility: hidden;
            animation-duration: var(--anim-duration);
            animation-delay: var(--anim-delay-back-foot);
            animation-iteration-count: infinite;
            animation-timing-function: steps(1, end);
        }

        .front-foot .dust-frame {
            animation-delay: var(--anim-delay-front-foot);
        }

        .dust-frame.frame-01  { animation-name: anim-dust-frame-01; }
        .dust-frame.frame-02  { animation-name: anim-dust-frame-02; }
        .dust-frame.frame-03  { animation-name: anim-dust-frame-03; }
        .dust-frame.frame-04  { animation-name: anim-dust-frame-04; }
        .dust-frame.frame-05  { animation-name: anim-dust-frame-05; }
        .dust-frame.frame-06  { animation-name: anim-dust-frame-06; }
        .dust-frame.frame-07  { animation-name: anim-dust-frame-07; }
        .dust-frame.frame-08  { animation-name: anim-dust-frame-08; }
        .dust-frame.frame-09  { animation-name: anim-dust-frame-09; }
        .dust-frame.frame-10  { animation-name: anim-dust-frame-10; }
        .dust-frame.frame-11  { animation-name: anim-dust-frame-11; }
        .dust-frame.frame-12  { animation-name: anim-dust-frame-12; }
        .dust-frame.frame-13  { animation-name: anim-dust-frame-13; }
        .dust-frame.frame-14  { animation-name: anim-dust-frame-14; }
        .dust-frame.frame-15  { animation-name: anim-dust-frame-15; }
        .dust-frame.frame-16  { animation-name: anim-dust-frame-16; }
        .dust-frame.frame-17  { animation-name: anim-dust-frame-17; }
        .dust-frame.frame-18  { animation-name: anim-dust-frame-18; }
        .dust-frame.frame-19  { animation-name: anim-dust-frame-19; }


        /* -------------------- Browser-specific styling -------------------- */

        @supports (-moz-appearance:none) {

            /* Firefox doesn't sync the animated fill exclusion mask to the frames correctly so this is a non-ideal mitigation of the effect */
            .frame-mask {
                transform: translate(-70px,15px);
            }


        }

    ]]></style>

    <!-- <rect width="100%" height="100%" fill="lightblue"/> -->

    <g>
        <rect class="mountains-movable-bg" fill="url(#pattern-mountains-bg)"/>
        <rect class="mountains-movable-fg" fill="url(#pattern-mountains-fg)"/>
        <g class="mountains-movable-offset">
            <rect class="mountains-movable-bg" fill="url(#pattern-mountains-bg)"/>
            <rect class="mountains-movable-fg" fill="url(#pattern-mountains-fg)"/>
        </g>
        <g class="mountains-movable-offset-2">
            <rect class="mountains-movable-bg" fill="url(#pattern-mountains-bg)"/>
            <rect class="mountains-movable-fg" fill="url(#pattern-mountains-fg)"/>
        </g>
        <!-- Enough for 4K+ widths -->
        <g class="mountains-movable-offset-3">
            <rect class="mountains-movable-bg" fill="url(#pattern-mountains-bg)"/>
            <rect class="mountains-movable-fg" fill="url(#pattern-mountains-fg)"/>
        </g>
    </g>

    <g class="stroke-opacity">
        <g class="back-foot">
            <g class="foot-scaling">
                <svg y="50%" x="50%">
                    <g class="back-foot-centering-offset">
                        <g class="back-foot-init-offset">
                            <use xlink:href="#back-foot-frame-01-bg" class="dust-frame frame-01"/>
                            <use xlink:href="#back-foot-frame-02-bg" class="dust-frame frame-02"/>
                            <use xlink:href="#back-foot-frame-03-bg" class="dust-frame frame-03"/>
                            <use xlink:href="#back-foot-frame-04-bg" class="dust-frame frame-04"/>
                            <use xlink:href="#back-foot-frame-05-bg" class="dust-frame frame-05"/>
                            <use xlink:href="#back-foot-frame-06-bg" class="dust-frame frame-06"/>
                            <use xlink:href="#back-foot-frame-07-bg" class="dust-frame frame-07"/>
                            <use xlink:href="#back-foot-frame-08-bg" class="dust-frame frame-08"/>
                            <use xlink:href="#back-foot-frame-09-bg" class="dust-frame frame-09"/>
                            <use xlink:href="#back-foot-frame-10-bg" class="dust-frame frame-10"/>
                            <use xlink:href="#back-foot-frame-11-bg" class="dust-frame frame-11"/>
                            <use xlink:href="#back-foot-frame-12-bg" class="dust-frame frame-12"/>
                            <use xlink:href="#back-foot-frame-13-bg" class="dust-frame frame-13"/>
                            <use xlink:href="#back-foot-frame-14-bg" class="dust-frame frame-14"/>
                            <use xlink:href="#back-foot-frame-15-bg" class="dust-frame frame-15"/>
                            <use xlink:href="#back-foot-frame-16-bg" class="dust-frame frame-16"/>
                            <use xlink:href="#back-foot-frame-17-bg" class="dust-frame frame-17"/>
                            <use xlink:href="#back-foot-frame-18-bg" class="dust-frame frame-18"/>
                            <use xlink:href="#back-foot-frame-19-bg" class="dust-frame frame-19"/>
                        </g>
                    </g>
                </svg>
            </g>
        </g>

        <g class="front-foot">
            <g class="foot-scaling">
                <svg y="50%" x="50%">
                    <g class="front-foot-centering-offset">
                        <g class="front-foot-init-offset">
                            <use xlink:href="#front-foot-frame-01-bg" class="dust-frame frame-01"/>
                            <use xlink:href="#front-foot-frame-02-bg" class="dust-frame frame-02"/>
                            <use xlink:href="#front-foot-frame-03-bg" class="dust-frame frame-03"/>
                            <use xlink:href="#front-foot-frame-04-bg" class="dust-frame frame-04"/>
                            <use xlink:href="#front-foot-frame-05-bg" class="dust-frame frame-05"/>
                            <use xlink:href="#front-foot-frame-06-bg" class="dust-frame frame-06"/>
                            <use xlink:href="#front-foot-frame-07-bg" class="dust-frame frame-07"/>
                            <use xlink:href="#front-foot-frame-08-bg" class="dust-frame frame-08"/>
                            <use xlink:href="#front-foot-frame-09-bg" class="dust-frame frame-09"/>
                            <use xlink:href="#front-foot-frame-10-bg" class="dust-frame frame-10"/>
                            <use xlink:href="#front-foot-frame-11-bg" class="dust-frame frame-11"/>
                            <use xlink:href="#front-foot-frame-12-bg" class="dust-frame frame-12"/>
                            <use xlink:href="#front-foot-frame-13-bg" class="dust-frame frame-13"/>
                            <use xlink:href="#front-foot-frame-14-bg" class="dust-frame frame-14"/>
                            <use xlink:href="#front-foot-frame-15-bg" class="dust-frame frame-15"/>
                            <use xlink:href="#front-foot-frame-16-bg" class="dust-frame frame-16"/>
                            <use xlink:href="#front-foot-frame-17-bg" class="dust-frame frame-17"/>
                            <use xlink:href="#front-foot-frame-18-bg" class="dust-frame frame-18"/>
                            <use xlink:href="#front-foot-frame-19-bg" class="dust-frame frame-19"/>
                        </g>
                    </g>
                </svg>
            </g>
        </g>
    </g>

    <g mask="url(#mask-dust-fill)">
        <svg x="50%">
            <g class="sprite-centering-offset" clip-path="url(#mask-sprite-crop)">
                <!-- <rect width="100%" height="100%" fill="red"/> -->
                <use xlink:href="#sprite" class="sprite"/>
            </g>
        </svg>
    </g>

    <g class="stroke-opacity">
        <g class="back-foot">
            <g class="foot-scaling">
                <svg y="50%" x="50%">
                    <g class="back-foot-centering-offset">
                        <g class="back-foot-init-offset">
                            <use xlink:href="#back-foot-frame-01-fg" class="dust-frame frame-01"/>
                            <use xlink:href="#back-foot-frame-02-fg" class="dust-frame frame-02"/>
                            <use xlink:href="#back-foot-frame-03-fg" class="dust-frame frame-03"/>
                            <use xlink:href="#back-foot-frame-04-fg" class="dust-frame frame-04"/>
                            <use xlink:href="#back-foot-frame-05-fg" class="dust-frame frame-05"/>
                            <use xlink:href="#back-foot-frame-06-fg" class="dust-frame frame-06"/>
                            <use xlink:href="#back-foot-frame-07-fg" class="dust-frame frame-07"/>
                            <use xlink:href="#back-foot-frame-08-fg" class="dust-frame frame-08"/>
                            <use xlink:href="#back-foot-frame-09-fg" class="dust-frame frame-09"/>
                            <use xlink:href="#back-foot-frame-10-fg" class="dust-frame frame-10"/>
                            <use xlink:href="#back-foot-frame-11-fg" class="dust-frame frame-11"/>
                            <use xlink:href="#back-foot-frame-12-fg" class="dust-frame frame-12"/>
                            <use xlink:href="#back-foot-frame-13-fg" class="dust-frame frame-13"/>
                            <use xlink:href="#back-foot-frame-14-fg" class="dust-frame frame-14"/>
                            <use xlink:href="#back-foot-frame-15-fg" class="dust-frame frame-15"/>
                            <use xlink:href="#back-foot-frame-16-fg" class="dust-frame frame-16"/>
                            <use xlink:href="#back-foot-frame-17-fg" class="dust-frame frame-17"/>
                        </g>
                    </g>
                </svg>
            </g>
        </g>

        <g class="front-foot">
            <g class="foot-scaling">
                <svg y="50%" x="50%">
                    <g class="front-foot-centering-offset">
                        <g class="front-foot-init-offset">
                            <use xlink:href="#front-foot-frame-01-fg" class="dust-frame frame-01"/>
                            <use xlink:href="#front-foot-frame-02-fg" class="dust-frame frame-02"/>
                            <use xlink:href="#front-foot-frame-03-fg" class="dust-frame frame-03"/>
                            <use xlink:href="#front-foot-frame-04-fg" class="dust-frame frame-04"/>
                            <use xlink:href="#front-foot-frame-05-fg" class="dust-frame frame-05"/>
                            <use xlink:href="#front-foot-frame-06-fg" class="dust-frame frame-06"/>
                            <use xlink:href="#front-foot-frame-07-fg" class="dust-frame frame-07"/>
                            <use xlink:href="#front-foot-frame-08-fg" class="dust-frame frame-08"/>
                            <use xlink:href="#front-foot-frame-09-fg" class="dust-frame frame-09"/>
                            <use xlink:href="#front-foot-frame-10-fg" class="dust-frame frame-10"/>
                            <use xlink:href="#front-foot-frame-11-fg" class="dust-frame frame-11"/>
                            <use xlink:href="#front-foot-frame-12-fg" class="dust-frame frame-12"/>
                            <use xlink:href="#front-foot-frame-13-fg" class="dust-frame frame-13"/>
                            <use xlink:href="#front-foot-frame-14-fg" class="dust-frame frame-14"/>
                            <use xlink:href="#front-foot-frame-15-fg" class="dust-frame frame-15"/>
                            <use xlink:href="#front-foot-frame-16-fg" class="dust-frame frame-16"/>
                            <use xlink:href="#front-foot-frame-17-fg" class="dust-frame frame-17"/>
                            <use xlink:href="#front-foot-frame-18-fg" class="dust-frame frame-18"/>
                            <use xlink:href="#front-foot-frame-19-fg" class="dust-frame frame-19"/>
                        </g>
                    </g>
                </svg>
            </g>
        </g>
    </g>

</svg>
